G75*
G70*
%OFA0B0*%
%FSLAX24Y24*%
%IPPOS*%
%LPD*%
%AMOC8*
5,1,8,0,0,1.08239X$1,22.5*
%
%ADD10C,0.0600*%
%ADD11R,0.0600X0.0600*%
%ADD12OC8,0.0600*%
%ADD13C,0.0520*%
%ADD14C,0.0787*%
%ADD15C,0.0600*%
%ADD16C,0.0709*%
%ADD17C,0.0520*%
%ADD18C,0.1266*%
%ADD19C,0.0860*%
%ADD20C,0.0740*%
%ADD21C,0.0660*%
%ADD22C,0.1300*%
%ADD23C,0.0400*%
%ADD24C,0.0396*%
%ADD25C,0.0240*%
%ADD26C,0.0100*%
%ADD27R,0.0396X0.0396*%
%ADD28C,0.0310*%
%ADD29C,0.0160*%
D10*
X012881Y014026D02*
X012881Y014626D01*
X013881Y014626D02*
X013881Y014026D01*
X014881Y014026D02*
X014881Y014626D01*
X015881Y014626D02*
X015881Y014026D01*
X016881Y014026D02*
X016881Y014626D01*
X017881Y014626D02*
X017881Y014026D01*
X023256Y017901D02*
X023256Y018501D01*
X024256Y018501D02*
X024256Y017901D01*
X025256Y017901D02*
X025256Y018501D01*
X026256Y018501D02*
X026256Y017901D01*
X027256Y017901D02*
X027256Y018501D01*
X028256Y018501D02*
X028256Y017901D01*
X029256Y017901D02*
X029256Y018501D01*
X030256Y018501D02*
X030256Y017901D01*
X031781Y017851D02*
X031781Y018451D01*
X032781Y018451D02*
X032781Y017851D01*
X033781Y017851D02*
X033781Y018451D01*
X034781Y018451D02*
X034781Y017851D01*
X035781Y017851D02*
X035781Y018451D01*
X036781Y018451D02*
X036781Y017851D01*
X037781Y017851D02*
X037781Y018451D01*
X038781Y018451D02*
X038781Y017851D01*
X037006Y024526D02*
X037006Y025126D01*
X036006Y025126D02*
X036006Y024526D01*
X012631Y022251D02*
X012631Y021651D01*
X011631Y021651D02*
X011631Y022251D01*
X010631Y022251D02*
X010631Y021651D01*
X009631Y021651D02*
X009631Y022251D01*
X008631Y022251D02*
X008631Y021651D01*
X007631Y021651D02*
X007631Y022251D01*
X006631Y022251D02*
X006631Y021651D01*
X005631Y021651D02*
X005631Y022251D01*
X004631Y022251D02*
X004631Y021651D01*
X003631Y021651D02*
X003631Y022251D01*
D11*
X028381Y007076D03*
D12*
X028381Y006076D03*
X027381Y006076D03*
X027381Y007076D03*
X026381Y007076D03*
X026381Y006076D03*
X019881Y006926D03*
X019881Y007926D03*
X019881Y008926D03*
X019881Y009926D03*
X019881Y010926D03*
X019881Y011926D03*
D13*
X025831Y009476D03*
X025831Y008476D03*
D14*
X014774Y029481D02*
X013987Y029481D01*
X012491Y030308D02*
X012491Y031095D01*
X013987Y031882D02*
X014774Y031882D01*
D15*
X031491Y009731D03*
X033271Y009731D03*
X033271Y007171D03*
X031491Y007171D03*
D16*
X016256Y028076D03*
X012256Y028076D03*
D17*
X024881Y020736D02*
X024881Y020216D01*
X025881Y020216D02*
X025881Y020736D01*
X026881Y020736D02*
X026881Y020216D01*
X027881Y020216D02*
X027881Y020736D01*
X028881Y020736D02*
X028881Y020216D01*
X029881Y020216D02*
X029881Y020736D01*
X035631Y020461D02*
X035631Y019941D01*
X036631Y019941D02*
X036631Y020461D01*
X037631Y020461D02*
X037631Y019941D01*
X038631Y019941D02*
X038631Y020461D01*
X039631Y020461D02*
X039631Y019941D01*
X040631Y019941D02*
X040631Y020461D01*
X018631Y004836D02*
X018631Y004316D01*
X017631Y004316D02*
X017631Y004836D01*
X016631Y004836D02*
X016631Y004316D01*
D18*
X030678Y032826D03*
X036583Y032826D03*
D19*
X035087Y030543D03*
X033631Y030110D03*
X032174Y030543D03*
D20*
X019756Y015701D03*
X019756Y014701D03*
X019756Y013701D03*
D21*
X009123Y031171D03*
X009123Y031951D03*
X008139Y031951D03*
X008139Y031171D03*
D22*
X006261Y033021D03*
X011001Y033021D03*
D23*
X008834Y007031D02*
X007161Y007031D01*
X007538Y006632D02*
X009233Y006632D01*
X009476Y006389D02*
X009569Y006297D01*
X009690Y006246D01*
X010160Y006246D01*
X010235Y006171D01*
X010411Y006098D01*
X010601Y006098D01*
X010776Y006171D01*
X010911Y006306D01*
X010984Y006481D01*
X010984Y006671D01*
X010911Y006847D01*
X010776Y006982D01*
X010601Y007054D01*
X010411Y007054D01*
X010235Y006982D01*
X010160Y006906D01*
X009892Y006906D01*
X009324Y007474D01*
X009376Y007496D01*
X009511Y007631D01*
X009584Y007806D01*
X009584Y007996D01*
X009511Y008172D01*
X009436Y008247D01*
X009436Y008436D01*
X009436Y008567D01*
X009385Y008688D01*
X008957Y009116D01*
X009092Y009116D01*
X009252Y009183D01*
X009291Y009221D01*
X011318Y009221D01*
X015071Y005422D01*
X015071Y005365D01*
X015137Y005205D01*
X015259Y005083D01*
X015419Y005016D01*
X015592Y005016D01*
X015752Y005083D01*
X015874Y005205D01*
X015941Y005365D01*
X015941Y005538D01*
X015874Y005698D01*
X015752Y005820D01*
X015592Y005886D01*
X015540Y005886D01*
X011736Y009737D01*
X011735Y009738D01*
X011692Y009782D01*
X011644Y009830D01*
X011643Y009830D01*
X011643Y009831D01*
X011585Y009855D01*
X011523Y009881D01*
X011522Y009881D01*
X011521Y009881D01*
X011458Y009881D01*
X011392Y009882D01*
X011391Y009881D01*
X009291Y009881D01*
X009252Y009920D01*
X009092Y009986D01*
X008919Y009986D01*
X008886Y009972D01*
X008886Y010123D01*
X009051Y010123D01*
X009226Y010196D01*
X009361Y010331D01*
X009434Y010506D01*
X009434Y010696D01*
X009361Y010872D01*
X009286Y010947D01*
X009286Y011067D01*
X009286Y013336D01*
X009286Y013467D01*
X009235Y013588D01*
X009035Y013788D01*
X008943Y013881D01*
X008821Y013931D01*
X006602Y013931D01*
X006526Y014007D01*
X006351Y014079D01*
X006161Y014079D01*
X005985Y014007D01*
X005850Y013872D01*
X005778Y013696D01*
X005778Y013506D01*
X005850Y013331D01*
X005985Y013196D01*
X006161Y013123D01*
X006351Y013123D01*
X006526Y013196D01*
X006602Y013271D01*
X008619Y013271D01*
X008626Y013265D01*
X008626Y011231D01*
X008540Y011231D01*
X008419Y011181D01*
X008326Y011088D01*
X008276Y011038D01*
X008226Y010917D01*
X008226Y010786D01*
X008226Y008986D01*
X008276Y008864D01*
X008369Y008772D01*
X008776Y008365D01*
X008776Y008247D01*
X008700Y008172D01*
X008679Y008120D01*
X004086Y012713D01*
X004086Y013605D01*
X004161Y013681D01*
X004234Y013856D01*
X004234Y014046D01*
X004161Y014222D01*
X004026Y014357D01*
X003851Y014429D01*
X003661Y014429D01*
X003485Y014357D01*
X003350Y014222D01*
X003278Y014046D01*
X003278Y013856D01*
X003350Y013681D01*
X003426Y013605D01*
X003426Y012642D01*
X003426Y012511D01*
X003476Y012389D01*
X009476Y006389D01*
X009768Y007031D02*
X010354Y007031D01*
X010657Y007031D02*
X013481Y007031D01*
X013088Y007429D02*
X009369Y007429D01*
X009584Y007828D02*
X012694Y007828D01*
X012300Y008227D02*
X009456Y008227D01*
X009412Y008625D02*
X011907Y008625D01*
X011513Y009024D02*
X009050Y009024D01*
X008515Y008625D02*
X008174Y008625D01*
X008226Y009024D02*
X007775Y009024D01*
X007376Y009422D02*
X008226Y009422D01*
X008226Y009821D02*
X006978Y009821D01*
X006579Y010219D02*
X008226Y010219D01*
X008226Y010618D02*
X006181Y010618D01*
X005782Y011016D02*
X008267Y011016D01*
X008626Y011415D02*
X005384Y011415D01*
X004985Y011813D02*
X008626Y011813D01*
X008626Y012212D02*
X004587Y012212D01*
X004188Y012611D02*
X008626Y012611D01*
X008626Y013009D02*
X004086Y013009D01*
X004086Y013408D02*
X005818Y013408D01*
X005823Y013806D02*
X004213Y013806D01*
X004168Y014205D02*
X009726Y014205D01*
X009726Y013897D02*
X009650Y013822D01*
X009578Y013646D01*
X009578Y013456D01*
X009650Y013281D01*
X009785Y013146D01*
X009961Y013073D01*
X010151Y013073D01*
X010326Y013146D01*
X010461Y013281D01*
X010534Y013456D01*
X010534Y013646D01*
X010461Y013822D01*
X010386Y013897D01*
X010386Y014865D01*
X011142Y015621D01*
X018640Y015621D01*
X018771Y015621D01*
X018893Y015672D01*
X019107Y015886D01*
X019086Y015835D01*
X019086Y015701D01*
X019086Y015568D01*
X019188Y015322D01*
X019322Y015187D01*
X019205Y015070D01*
X019123Y014873D01*
X019092Y014886D01*
X018919Y014886D01*
X018759Y014820D01*
X018637Y014698D01*
X018571Y014538D01*
X018571Y014365D01*
X018637Y014205D01*
X018640Y014202D01*
X018461Y014023D01*
X018461Y014742D01*
X018372Y014955D01*
X018209Y015118D01*
X017996Y015206D01*
X017765Y015206D01*
X017552Y015118D01*
X017389Y014955D01*
X017381Y014935D01*
X017372Y014955D01*
X017209Y015118D01*
X016996Y015206D01*
X016765Y015206D01*
X016552Y015118D01*
X016389Y014955D01*
X016381Y014935D01*
X016372Y014955D01*
X016209Y015118D01*
X015996Y015206D01*
X015765Y015206D01*
X015552Y015118D01*
X015389Y014955D01*
X015381Y014935D01*
X015372Y014955D01*
X015209Y015118D01*
X014996Y015206D01*
X014765Y015206D01*
X014552Y015118D01*
X014389Y014955D01*
X014381Y014935D01*
X014372Y014955D01*
X014209Y015118D01*
X013996Y015206D01*
X013765Y015206D01*
X013552Y015118D01*
X013389Y014955D01*
X013381Y014935D01*
X013372Y014955D01*
X013209Y015118D01*
X012996Y015206D01*
X012765Y015206D01*
X012552Y015118D01*
X012389Y014955D01*
X012301Y014742D01*
X012301Y013911D01*
X012389Y013698D01*
X012552Y013535D01*
X012765Y013446D01*
X012996Y013446D01*
X013209Y013535D01*
X013372Y013698D01*
X013381Y013718D01*
X013389Y013698D01*
X013552Y013535D01*
X013765Y013446D01*
X013996Y013446D01*
X014209Y013535D01*
X014372Y013698D01*
X014381Y013718D01*
X014389Y013698D01*
X014552Y013535D01*
X014765Y013446D01*
X014996Y013446D01*
X015209Y013535D01*
X015372Y013698D01*
X015381Y013718D01*
X015389Y013698D01*
X015552Y013535D01*
X015765Y013446D01*
X015996Y013446D01*
X016209Y013535D01*
X016372Y013698D01*
X016381Y013718D01*
X016389Y013698D01*
X016552Y013535D01*
X016765Y013446D01*
X016996Y013446D01*
X017209Y013535D01*
X017372Y013698D01*
X017381Y013718D01*
X017389Y013698D01*
X017552Y013535D01*
X017765Y013446D01*
X017996Y013446D01*
X018209Y013535D01*
X018226Y013551D01*
X018226Y010207D01*
X018222Y010197D01*
X018226Y010142D01*
X018226Y010086D01*
X018229Y010076D01*
X018230Y010066D01*
X018255Y010016D01*
X018276Y009964D01*
X018283Y009957D01*
X018287Y009948D01*
X018329Y009911D01*
X018369Y009872D01*
X018378Y009868D01*
X018787Y009504D01*
X019279Y009062D01*
X019301Y009040D01*
X019301Y008686D01*
X019546Y008440D01*
X019281Y008175D01*
X019281Y007926D01*
X019281Y007678D01*
X019532Y007426D01*
X019281Y007175D01*
X019281Y006926D01*
X019281Y006678D01*
X019632Y006326D01*
X019880Y006326D01*
X019880Y006926D01*
X019281Y006926D01*
X019880Y006926D01*
X019880Y006926D01*
X019881Y006926D01*
X019881Y006926D01*
X020481Y006926D01*
X020481Y006678D01*
X020129Y006326D01*
X019881Y006326D01*
X019881Y006926D01*
X020481Y006926D01*
X020481Y007175D01*
X020229Y007426D01*
X020481Y007678D01*
X020481Y007926D01*
X019881Y007926D01*
X019881Y007926D01*
X019881Y007326D01*
X019881Y006927D01*
X019880Y006927D01*
X019880Y007326D01*
X019880Y007926D01*
X019281Y007926D01*
X019880Y007926D01*
X019880Y007926D01*
X019881Y007926D01*
X020481Y007926D01*
X020481Y008175D01*
X020215Y008440D01*
X020461Y008686D01*
X020461Y009167D01*
X020201Y009426D01*
X020461Y009686D01*
X020461Y009729D01*
X021029Y010221D01*
X021838Y010221D01*
X021828Y010196D01*
X021828Y010006D01*
X021900Y009831D01*
X022035Y009696D01*
X022211Y009623D01*
X022401Y009623D01*
X022576Y009696D01*
X022652Y009771D01*
X025368Y009771D01*
X025291Y009584D01*
X025291Y009369D01*
X025373Y009170D01*
X025525Y009019D01*
X025627Y008976D01*
X025525Y008934D01*
X025373Y008782D01*
X025291Y008584D01*
X025291Y008369D01*
X025373Y008170D01*
X025525Y008019D01*
X025723Y007936D01*
X025938Y007936D01*
X026137Y008019D01*
X026288Y008170D01*
X026371Y008369D01*
X026371Y008584D01*
X026288Y008782D01*
X026137Y008934D01*
X026035Y008976D01*
X026137Y009019D01*
X026288Y009170D01*
X026371Y009369D01*
X026371Y009584D01*
X026293Y009771D01*
X029428Y009771D01*
X029428Y009756D01*
X029500Y009581D01*
X029635Y009446D01*
X029811Y009373D01*
X030001Y009373D01*
X030176Y009446D01*
X030311Y009581D01*
X030384Y009756D01*
X030384Y009897D01*
X030435Y009846D01*
X030611Y009773D01*
X030801Y009773D01*
X030891Y009811D01*
X030891Y009731D01*
X030891Y009612D01*
X030982Y009391D01*
X031151Y009223D01*
X031371Y009131D01*
X031490Y009131D01*
X031490Y009731D01*
X030891Y009731D01*
X031490Y009731D01*
X031490Y009731D01*
X031491Y009731D01*
X031491Y009131D01*
X031610Y009131D01*
X031831Y009223D01*
X031999Y009391D01*
X032026Y009455D01*
X032026Y009031D01*
X027121Y009031D01*
X026990Y009031D01*
X026869Y008981D01*
X026626Y008738D01*
X026576Y008617D01*
X026576Y008486D01*
X026576Y007656D01*
X026140Y007656D01*
X025801Y007317D01*
X025801Y006836D01*
X026046Y006590D01*
X025781Y006325D01*
X025781Y006076D01*
X025781Y005828D01*
X026132Y005476D01*
X026380Y005476D01*
X026380Y006076D01*
X025781Y006076D01*
X026380Y006076D01*
X026380Y006076D01*
X026381Y006076D01*
X026381Y005476D01*
X026507Y005476D01*
X026471Y005388D01*
X026471Y005215D01*
X026505Y005131D01*
X020529Y005131D01*
X018886Y006552D01*
X018886Y006955D01*
X018961Y007031D01*
X019281Y007031D01*
X019034Y007206D02*
X019034Y007396D01*
X018961Y007572D01*
X018826Y007707D01*
X018651Y007779D01*
X018461Y007779D01*
X018285Y007707D01*
X018150Y007572D01*
X018078Y007396D01*
X018078Y007206D01*
X018150Y007031D01*
X014409Y007031D01*
X014015Y007429D02*
X018091Y007429D01*
X018150Y007031D02*
X018226Y006955D01*
X018226Y006455D01*
X018222Y006443D01*
X018226Y006389D01*
X018226Y006336D01*
X018230Y006324D01*
X018231Y006312D01*
X018255Y006264D01*
X018276Y006214D01*
X018285Y006206D01*
X018290Y006195D01*
X018331Y006159D01*
X018369Y006122D01*
X018380Y006117D01*
X020181Y004559D01*
X020219Y004522D01*
X020230Y004517D01*
X020239Y004509D01*
X020291Y004492D01*
X020340Y004471D01*
X020352Y004471D01*
X020364Y004467D01*
X020418Y004471D01*
X029421Y004471D01*
X029543Y004522D01*
X029635Y004614D01*
X030792Y005771D01*
X033247Y005771D01*
X033253Y005769D01*
X033312Y005771D01*
X033371Y005771D01*
X033378Y005774D01*
X033384Y005774D01*
X033439Y005799D01*
X033493Y005822D01*
X033497Y005826D01*
X033504Y005829D01*
X033544Y005873D01*
X033585Y005914D01*
X033588Y005921D01*
X034144Y006523D01*
X034185Y006564D01*
X034188Y006571D01*
X034193Y006576D01*
X034213Y006631D01*
X034236Y006686D01*
X034236Y006693D01*
X034238Y006699D01*
X034236Y006758D01*
X034236Y007621D01*
X035140Y007621D01*
X035271Y007621D01*
X035393Y007672D01*
X037243Y009522D01*
X037335Y009614D01*
X037372Y009702D01*
X037474Y009805D01*
X037541Y009965D01*
X037541Y010138D01*
X037474Y010298D01*
X037352Y010420D01*
X037192Y010486D01*
X037019Y010486D01*
X036859Y010420D01*
X036855Y010416D01*
X036701Y010479D01*
X036511Y010479D01*
X036335Y010407D01*
X036200Y010272D01*
X036128Y010096D01*
X036128Y009906D01*
X036176Y009789D01*
X035119Y008731D01*
X033434Y008731D01*
X033434Y008763D01*
X033550Y008879D01*
X033601Y009001D01*
X033601Y009132D01*
X033601Y009241D01*
X033762Y009403D01*
X033851Y009616D01*
X033851Y009847D01*
X033762Y010060D01*
X033599Y010223D01*
X033386Y010311D01*
X033155Y010311D01*
X032942Y010223D01*
X032779Y010060D01*
X032691Y009847D01*
X032691Y009616D01*
X032779Y009403D01*
X032941Y009241D01*
X032941Y009229D01*
X032861Y009229D01*
X032686Y009157D01*
X032686Y010186D01*
X032686Y010317D01*
X032635Y010438D01*
X032542Y010532D01*
X032576Y010546D01*
X032711Y010681D01*
X032770Y010823D01*
X032901Y010823D01*
X033076Y010896D01*
X033211Y011031D01*
X033240Y011100D01*
X033269Y011072D01*
X033390Y011021D01*
X033521Y011021D01*
X035659Y011021D01*
X035670Y010995D01*
X035749Y010916D01*
X035852Y010873D01*
X036359Y010873D01*
X036462Y010916D01*
X036541Y010995D01*
X036584Y011098D01*
X036584Y011605D01*
X036541Y011708D01*
X036462Y011787D01*
X036359Y011829D01*
X035852Y011829D01*
X035749Y011787D01*
X035670Y011708D01*
X035659Y011681D01*
X034412Y011681D01*
X034461Y011731D01*
X034534Y011906D01*
X034534Y012096D01*
X034461Y012272D01*
X034386Y012347D01*
X034386Y013005D01*
X034402Y013021D01*
X034833Y013021D01*
X034850Y012981D01*
X034985Y012846D01*
X035161Y012773D01*
X035351Y012773D01*
X035526Y012846D01*
X035661Y012981D01*
X035734Y013156D01*
X035734Y013328D01*
X038508Y013328D01*
X038584Y013252D01*
X038759Y013179D01*
X038949Y013179D01*
X039125Y013252D01*
X039260Y013387D01*
X039332Y013562D01*
X039332Y013753D01*
X039260Y013928D01*
X039125Y014063D01*
X038949Y014136D01*
X038759Y014136D01*
X038584Y014063D01*
X038508Y013987D01*
X034536Y013987D01*
X034535Y013988D01*
X034443Y014081D01*
X034321Y014131D01*
X030971Y014131D01*
X030840Y014131D01*
X030719Y014081D01*
X030539Y013901D01*
X030387Y013787D01*
X030360Y013775D01*
X030335Y013748D01*
X030305Y013726D01*
X030290Y013701D01*
X029663Y013031D01*
X028902Y013031D01*
X028826Y013107D01*
X028651Y013179D01*
X028461Y013179D01*
X028285Y013107D01*
X028150Y012972D01*
X028078Y012796D01*
X028078Y012606D01*
X028150Y012431D01*
X028285Y012296D01*
X028461Y012223D01*
X028651Y012223D01*
X028826Y012296D01*
X028902Y012371D01*
X029746Y012371D01*
X029751Y012369D01*
X029811Y012371D01*
X029871Y012371D01*
X029876Y012373D01*
X029882Y012374D01*
X029937Y012398D01*
X029993Y012422D01*
X029996Y012425D01*
X030001Y012428D01*
X030043Y012472D01*
X030085Y012514D01*
X030087Y012520D01*
X030743Y013219D01*
X030800Y013081D01*
X030876Y013005D01*
X030876Y010810D01*
X030775Y010729D01*
X030611Y010729D01*
X030435Y010657D01*
X030300Y010522D01*
X030228Y010346D01*
X030228Y010205D01*
X030176Y010257D01*
X030001Y010329D01*
X029894Y010329D01*
X029843Y010381D01*
X029721Y010431D01*
X023252Y010431D01*
X023285Y010464D01*
X023314Y010534D01*
X023411Y010631D01*
X023484Y010806D01*
X023484Y010996D01*
X023411Y011172D01*
X023276Y011307D01*
X023101Y011379D01*
X022911Y011379D01*
X022735Y011307D01*
X022600Y011172D01*
X022528Y010996D01*
X022528Y010881D01*
X020917Y010881D01*
X020864Y010885D01*
X020852Y010881D01*
X020840Y010881D01*
X020790Y010861D01*
X020739Y010844D01*
X020730Y010836D01*
X020719Y010831D01*
X020681Y010793D01*
X020227Y010400D01*
X020201Y010426D01*
X020461Y010686D01*
X020461Y011167D01*
X020201Y011426D01*
X020461Y011686D01*
X020461Y012167D01*
X020121Y012506D01*
X019640Y012506D01*
X019301Y012167D01*
X019301Y011686D01*
X019560Y011426D01*
X019301Y011167D01*
X019301Y010686D01*
X019560Y010426D01*
X019301Y010167D01*
X019301Y009930D01*
X019274Y009953D01*
X019274Y009954D01*
X019226Y009996D01*
X019178Y010041D01*
X019177Y010041D01*
X018886Y010299D01*
X018886Y013515D01*
X019106Y013735D01*
X019106Y013572D01*
X019205Y013333D01*
X019387Y013150D01*
X019626Y013051D01*
X019885Y013051D01*
X019923Y013067D01*
X021119Y011872D01*
X021240Y011821D01*
X021371Y011821D01*
X024360Y011821D01*
X024435Y011746D01*
X024611Y011673D01*
X024801Y011673D01*
X024976Y011746D01*
X025085Y011855D01*
X025119Y011822D01*
X025128Y011818D01*
X025278Y011685D01*
X025278Y011606D01*
X025350Y011431D01*
X025485Y011296D01*
X025661Y011223D01*
X025851Y011223D01*
X026026Y011296D01*
X026161Y011431D01*
X026234Y011606D01*
X026234Y011796D01*
X026161Y011972D01*
X026026Y012107D01*
X025851Y012179D01*
X025714Y012179D01*
X025665Y012223D01*
X025801Y012223D01*
X025976Y012296D01*
X026111Y012431D01*
X026184Y012606D01*
X026184Y012796D01*
X026111Y012972D01*
X025976Y013107D01*
X025886Y013144D01*
X025886Y014023D01*
X025967Y014023D01*
X026926Y013064D01*
X026878Y012946D01*
X026878Y012756D01*
X026950Y012581D01*
X027085Y012446D01*
X027261Y012373D01*
X027451Y012373D01*
X027626Y012446D01*
X027761Y012581D01*
X027834Y012756D01*
X027834Y012946D01*
X027761Y013122D01*
X027664Y013219D01*
X027635Y013288D01*
X027543Y013381D01*
X026434Y014490D01*
X026434Y014573D01*
X026451Y014573D01*
X026626Y014646D01*
X026702Y014721D01*
X027776Y014721D01*
X027776Y014297D01*
X027700Y014222D01*
X027628Y014046D01*
X027628Y013856D01*
X027700Y013681D01*
X027835Y013546D01*
X028011Y013473D01*
X028201Y013473D01*
X028376Y013546D01*
X028511Y013681D01*
X028584Y013856D01*
X028584Y014046D01*
X028511Y014222D01*
X028436Y014297D01*
X028436Y014521D01*
X035128Y014521D01*
X035128Y014506D01*
X035200Y014331D01*
X035335Y014196D01*
X035511Y014123D01*
X035701Y014123D01*
X035876Y014196D01*
X036011Y014331D01*
X036084Y014506D01*
X036084Y014521D01*
X037119Y014521D01*
X037269Y014372D01*
X037390Y014321D01*
X037521Y014321D01*
X037560Y014321D01*
X037635Y014246D01*
X037811Y014173D01*
X038001Y014173D01*
X038176Y014246D01*
X038311Y014381D01*
X038384Y014556D01*
X038384Y014721D01*
X038790Y014721D01*
X038921Y014721D01*
X039043Y014772D01*
X040793Y016522D01*
X040885Y016614D01*
X040936Y016736D01*
X040936Y016955D01*
X041011Y017031D01*
X041084Y017206D01*
X041084Y017396D01*
X041011Y017572D01*
X040876Y017707D01*
X040701Y017779D01*
X040511Y017779D01*
X040335Y017707D01*
X040200Y017572D01*
X040135Y017415D01*
X040101Y017429D01*
X039911Y017429D01*
X039735Y017357D01*
X039600Y017222D01*
X039528Y017047D01*
X039451Y017079D01*
X039261Y017079D01*
X039085Y017007D01*
X038950Y016872D01*
X038878Y016696D01*
X038878Y016540D01*
X038284Y015946D01*
X038284Y015996D01*
X038211Y016172D01*
X038076Y016307D01*
X037901Y016379D01*
X037711Y016379D01*
X037676Y016365D01*
X037611Y016522D01*
X037476Y016657D01*
X037301Y016729D01*
X037111Y016729D01*
X036935Y016657D01*
X036800Y016522D01*
X036783Y016481D01*
X036692Y016481D01*
X036643Y016531D01*
X036521Y016581D01*
X036473Y016581D01*
X036484Y016606D01*
X036484Y016796D01*
X036411Y016972D01*
X036276Y017107D01*
X036101Y017179D01*
X035911Y017179D01*
X035735Y017107D01*
X035600Y016972D01*
X035528Y016796D01*
X035528Y016781D01*
X031042Y016781D01*
X030943Y016881D01*
X030821Y016931D01*
X030690Y016931D01*
X028719Y016931D01*
X028661Y017072D01*
X028526Y017207D01*
X028351Y017279D01*
X028161Y017279D01*
X027985Y017207D01*
X027956Y017177D01*
X027926Y017207D01*
X027751Y017279D01*
X027561Y017279D01*
X027385Y017207D01*
X027250Y017072D01*
X027178Y016896D01*
X027178Y016706D01*
X027250Y016531D01*
X024484Y016531D01*
X024484Y016696D01*
X024411Y016872D01*
X024276Y017007D01*
X024101Y017079D01*
X023911Y017079D01*
X023735Y017007D01*
X023600Y016872D01*
X023542Y016731D01*
X022542Y016731D01*
X022484Y016790D01*
X022484Y016896D01*
X022411Y017072D01*
X022276Y017207D01*
X022101Y017279D01*
X021911Y017279D01*
X021735Y017207D01*
X021600Y017072D01*
X021528Y016896D01*
X021528Y016731D01*
X019090Y016731D01*
X018969Y016681D01*
X018876Y016588D01*
X018569Y016281D01*
X011071Y016281D01*
X010940Y016281D01*
X010819Y016231D01*
X009776Y015188D01*
X009726Y015067D01*
X009726Y014936D01*
X009726Y013897D01*
X009644Y013806D02*
X009017Y013806D01*
X009286Y013408D02*
X009598Y013408D01*
X009286Y013009D02*
X018226Y013009D01*
X018226Y012611D02*
X009286Y012611D01*
X009286Y012212D02*
X018226Y012212D01*
X018226Y011813D02*
X009286Y011813D01*
X009286Y011415D02*
X018226Y011415D01*
X018226Y011016D02*
X009286Y011016D01*
X009434Y010618D02*
X018226Y010618D01*
X018226Y010219D02*
X009250Y010219D01*
X008755Y008227D02*
X008572Y008227D01*
X008037Y007828D02*
X006405Y007828D01*
X006028Y008227D02*
X007639Y008227D01*
X007240Y008625D02*
X005650Y008625D01*
X005273Y009024D02*
X006842Y009024D01*
X006443Y009422D02*
X004895Y009422D01*
X004631Y009701D02*
X004631Y009826D01*
X002652Y013575D01*
X002696Y024940D01*
X004581Y024901D01*
X004581Y026026D01*
X002700Y026065D01*
X002711Y028944D01*
X003881Y031701D01*
X005261Y033476D01*
X005443Y033476D01*
X005331Y033206D01*
X005331Y032836D01*
X005472Y032495D01*
X005734Y032233D01*
X006076Y032091D01*
X006446Y032091D01*
X006787Y032233D01*
X007049Y032495D01*
X007191Y032836D01*
X007191Y033206D01*
X007079Y033476D01*
X010183Y033476D01*
X010071Y033206D01*
X010071Y032836D01*
X010212Y032495D01*
X010474Y032233D01*
X010816Y032091D01*
X010948Y032091D01*
X010931Y028151D01*
X009931Y028151D01*
X009981Y025826D01*
X008481Y025776D01*
X008456Y024901D01*
X010631Y024951D01*
X010681Y027451D01*
X011556Y027451D01*
X011556Y030401D01*
X011817Y030401D01*
X011817Y030174D01*
X011920Y029926D01*
X012109Y029736D01*
X012357Y029634D01*
X012625Y029634D01*
X012873Y029736D01*
X013062Y029926D01*
X013165Y030174D01*
X013165Y031229D01*
X013062Y031477D01*
X012873Y031666D01*
X012625Y031769D01*
X012400Y031769D01*
X012385Y033476D01*
X028256Y033476D01*
X028256Y022076D01*
X030131Y022076D01*
X030131Y022826D01*
X029131Y022826D01*
X029014Y033476D01*
X030037Y033476D01*
X029904Y033344D01*
X029765Y033008D01*
X029765Y032645D01*
X029904Y032309D01*
X030161Y032052D01*
X030496Y031913D01*
X030860Y031913D01*
X031195Y032052D01*
X031452Y032309D01*
X031591Y032645D01*
X031591Y033008D01*
X031452Y033344D01*
X031319Y033476D01*
X035942Y033476D01*
X035809Y033344D01*
X035670Y033008D01*
X035670Y032645D01*
X035809Y032309D01*
X036066Y032052D01*
X036402Y031913D01*
X036765Y031913D01*
X037101Y032052D01*
X037357Y032309D01*
X037496Y032645D01*
X037496Y033008D01*
X037357Y033344D01*
X037225Y033476D01*
X038062Y033476D01*
X040381Y029576D01*
X041526Y026245D01*
X041526Y022701D01*
X033756Y022701D01*
X033756Y022076D01*
X041526Y022076D01*
X041526Y016059D01*
X039281Y011001D01*
X035631Y006326D01*
X033381Y004626D01*
X031456Y003201D01*
X031306Y003151D01*
X012331Y002976D01*
X009131Y004951D01*
X004631Y009701D01*
X004631Y009821D02*
X006045Y009821D01*
X005646Y010219D02*
X004423Y010219D01*
X004213Y010618D02*
X005247Y010618D01*
X004849Y011016D02*
X004003Y011016D01*
X003792Y011415D02*
X004450Y011415D01*
X004052Y011813D02*
X003582Y011813D01*
X003653Y012212D02*
X003372Y012212D01*
X003426Y012611D02*
X003161Y012611D01*
X002951Y013009D02*
X003426Y013009D01*
X003426Y013408D02*
X002741Y013408D01*
X002653Y013806D02*
X003298Y013806D01*
X003343Y014205D02*
X002654Y014205D01*
X002656Y014603D02*
X009726Y014603D01*
X009726Y015002D02*
X002658Y015002D01*
X002659Y015400D02*
X009988Y015400D01*
X010387Y015799D02*
X002661Y015799D01*
X002662Y016197D02*
X004059Y016197D01*
X004046Y016230D02*
X004100Y016097D01*
X004202Y015996D01*
X004334Y015941D01*
X006834Y015941D01*
X006977Y015941D01*
X007110Y015996D01*
X007211Y016097D01*
X007266Y016230D01*
X007266Y016756D01*
X007272Y016781D01*
X007266Y016827D01*
X007266Y016873D01*
X007256Y016897D01*
X007234Y017049D01*
X007234Y017049D01*
X007079Y017416D01*
X007079Y017416D01*
X006836Y017732D01*
X006521Y017975D01*
X006266Y018082D01*
X006266Y018373D01*
X006266Y020230D01*
X006266Y020373D01*
X006211Y020505D01*
X006110Y020606D01*
X005977Y020661D01*
X005477Y020661D01*
X005334Y020661D01*
X005202Y020606D01*
X005100Y020505D01*
X005046Y020373D01*
X005046Y018230D01*
X005046Y018082D01*
X004791Y017975D01*
X004791Y017975D01*
X004475Y017732D01*
X004475Y017732D01*
X004475Y017732D01*
X004232Y017416D01*
X004077Y017049D01*
X004056Y016897D01*
X004046Y016873D01*
X004046Y016827D01*
X004039Y016781D01*
X004046Y016756D01*
X004046Y016373D01*
X004046Y016230D01*
X004046Y016596D02*
X002664Y016596D01*
X002665Y016995D02*
X004070Y016995D01*
X004077Y017049D02*
X004077Y017049D01*
X004223Y017393D02*
X002667Y017393D01*
X002668Y017792D02*
X004553Y017792D01*
X004232Y017416D02*
X004232Y017416D01*
X005046Y018190D02*
X002670Y018190D01*
X002671Y018589D02*
X005046Y018589D01*
X005046Y018987D02*
X002673Y018987D01*
X002674Y019386D02*
X005046Y019386D01*
X005046Y019784D02*
X002676Y019784D01*
X002677Y020183D02*
X005046Y020183D01*
X005177Y020581D02*
X002679Y020581D01*
X002680Y020980D02*
X018710Y020980D01*
X018312Y021379D02*
X013145Y021379D01*
X013122Y021323D02*
X013211Y021536D01*
X013211Y022367D01*
X013122Y022580D01*
X012959Y022743D01*
X012746Y022831D01*
X012515Y022831D01*
X012302Y022743D01*
X012139Y022580D01*
X012131Y022560D01*
X012122Y022580D01*
X011959Y022743D01*
X011746Y022831D01*
X011515Y022831D01*
X011302Y022743D01*
X011139Y022580D01*
X011131Y022560D01*
X011122Y022580D01*
X010959Y022743D01*
X010746Y022831D01*
X010515Y022831D01*
X010302Y022743D01*
X010139Y022580D01*
X010131Y022560D01*
X010122Y022580D01*
X009959Y022743D01*
X009746Y022831D01*
X009515Y022831D01*
X009302Y022743D01*
X009139Y022580D01*
X009131Y022560D01*
X009122Y022580D01*
X008959Y022743D01*
X008746Y022831D01*
X008515Y022831D01*
X008302Y022743D01*
X008139Y022580D01*
X008131Y022560D01*
X008122Y022580D01*
X007959Y022743D01*
X007746Y022831D01*
X007515Y022831D01*
X007302Y022743D01*
X007139Y022580D01*
X007131Y022560D01*
X007122Y022580D01*
X006959Y022743D01*
X006746Y022831D01*
X006515Y022831D01*
X006302Y022743D01*
X006139Y022580D01*
X006131Y022560D01*
X006122Y022580D01*
X005959Y022743D01*
X005746Y022831D01*
X005515Y022831D01*
X005302Y022743D01*
X005139Y022580D01*
X005131Y022560D01*
X005122Y022580D01*
X004987Y022716D01*
X005192Y022921D01*
X016769Y022921D01*
X020441Y019250D01*
X020476Y019164D01*
X020626Y019014D01*
X020719Y018922D01*
X020840Y018871D01*
X021810Y018871D01*
X021885Y018796D01*
X022061Y018723D01*
X022251Y018723D01*
X022426Y018796D01*
X022561Y018931D01*
X022634Y019106D01*
X022634Y019296D01*
X022603Y019371D01*
X022869Y019371D01*
X022926Y019315D01*
X022926Y018992D01*
X022764Y018830D01*
X022676Y018617D01*
X022676Y017786D01*
X022764Y017573D01*
X022927Y017410D01*
X023140Y017321D01*
X023371Y017321D01*
X023584Y017410D01*
X023747Y017573D01*
X023756Y017593D01*
X023764Y017573D01*
X023927Y017410D01*
X024140Y017321D01*
X024371Y017321D01*
X024584Y017410D01*
X024747Y017573D01*
X024756Y017593D01*
X024764Y017573D01*
X024927Y017410D01*
X025140Y017321D01*
X025371Y017321D01*
X025584Y017410D01*
X025747Y017573D01*
X025756Y017593D01*
X025764Y017573D01*
X025927Y017410D01*
X026140Y017321D01*
X026371Y017321D01*
X026584Y017410D01*
X026747Y017573D01*
X026756Y017593D01*
X026764Y017573D01*
X026927Y017410D01*
X027140Y017321D01*
X027371Y017321D01*
X027584Y017410D01*
X027747Y017573D01*
X027756Y017593D01*
X027764Y017573D01*
X027927Y017410D01*
X028140Y017321D01*
X028371Y017321D01*
X028584Y017410D01*
X028747Y017573D01*
X028756Y017593D01*
X028764Y017573D01*
X028927Y017410D01*
X029140Y017321D01*
X029371Y017321D01*
X029584Y017410D01*
X029747Y017573D01*
X029756Y017593D01*
X029764Y017573D01*
X029927Y017410D01*
X030140Y017321D01*
X030371Y017321D01*
X030584Y017410D01*
X030747Y017573D01*
X030836Y017786D01*
X030836Y018617D01*
X030792Y018721D01*
X031265Y018721D01*
X031201Y018567D01*
X031201Y017736D01*
X031289Y017523D01*
X031452Y017360D01*
X031665Y017271D01*
X031896Y017271D01*
X032109Y017360D01*
X032272Y017523D01*
X032281Y017543D01*
X032289Y017523D01*
X032452Y017360D01*
X032665Y017271D01*
X032896Y017271D01*
X033109Y017360D01*
X033272Y017523D01*
X033281Y017543D01*
X033289Y017523D01*
X033452Y017360D01*
X033665Y017271D01*
X033896Y017271D01*
X034109Y017360D01*
X034272Y017523D01*
X034281Y017543D01*
X034289Y017523D01*
X034452Y017360D01*
X034665Y017271D01*
X034896Y017271D01*
X035109Y017360D01*
X035272Y017523D01*
X035281Y017543D01*
X035289Y017523D01*
X035452Y017360D01*
X035665Y017271D01*
X035896Y017271D01*
X036109Y017360D01*
X036272Y017523D01*
X036281Y017543D01*
X036289Y017523D01*
X036452Y017360D01*
X036665Y017271D01*
X036896Y017271D01*
X037109Y017360D01*
X037269Y017519D01*
X037272Y017511D01*
X037441Y017343D01*
X037661Y017251D01*
X037780Y017251D01*
X037780Y018151D01*
X037781Y018151D01*
X037781Y017251D01*
X037900Y017251D01*
X038121Y017343D01*
X038289Y017511D01*
X038293Y017519D01*
X038452Y017360D01*
X038665Y017271D01*
X038896Y017271D01*
X039109Y017360D01*
X039272Y017523D01*
X039361Y017736D01*
X039361Y018567D01*
X039272Y018780D01*
X039109Y018943D01*
X038896Y019031D01*
X038665Y019031D01*
X038452Y018943D01*
X038293Y018783D01*
X038289Y018791D01*
X038121Y018960D01*
X037900Y019051D01*
X037781Y019051D01*
X037781Y018152D01*
X037780Y018152D01*
X037780Y019051D01*
X037732Y019051D01*
X037661Y019222D01*
X037586Y019297D01*
X037586Y019401D01*
X037738Y019401D01*
X037937Y019484D01*
X038088Y019635D01*
X038131Y019737D01*
X038173Y019635D01*
X038325Y019484D01*
X038523Y019401D01*
X038738Y019401D01*
X038937Y019484D01*
X039088Y019635D01*
X039131Y019737D01*
X039173Y019635D01*
X039325Y019484D01*
X039523Y019401D01*
X039738Y019401D01*
X039937Y019484D01*
X040088Y019635D01*
X040131Y019737D01*
X040173Y019635D01*
X040325Y019484D01*
X040523Y019401D01*
X040738Y019401D01*
X040937Y019484D01*
X041088Y019635D01*
X041171Y019834D01*
X041171Y020569D01*
X041088Y020767D01*
X040937Y020919D01*
X040738Y021001D01*
X040523Y021001D01*
X040325Y020919D01*
X040173Y020767D01*
X040131Y020665D01*
X040088Y020767D01*
X039937Y020919D01*
X039738Y021001D01*
X039523Y021001D01*
X039325Y020919D01*
X039173Y020767D01*
X039131Y020665D01*
X039088Y020767D01*
X038937Y020919D01*
X038738Y021001D01*
X038523Y021001D01*
X038325Y020919D01*
X038173Y020767D01*
X038131Y020665D01*
X038088Y020767D01*
X037937Y020919D01*
X037738Y021001D01*
X037523Y021001D01*
X037325Y020919D01*
X037173Y020767D01*
X037131Y020665D01*
X037088Y020767D01*
X036937Y020919D01*
X036738Y021001D01*
X036523Y021001D01*
X036325Y020919D01*
X036173Y020767D01*
X036131Y020665D01*
X036088Y020767D01*
X035937Y020919D01*
X035738Y021001D01*
X035523Y021001D01*
X035325Y020919D01*
X035173Y020767D01*
X035091Y020569D01*
X035091Y019834D01*
X035173Y019635D01*
X035325Y019484D01*
X035523Y019401D01*
X035738Y019401D01*
X035937Y019484D01*
X036088Y019635D01*
X036131Y019737D01*
X036173Y019635D01*
X036325Y019484D01*
X036523Y019401D01*
X036738Y019401D01*
X036926Y019479D01*
X036926Y019297D01*
X036850Y019222D01*
X036778Y019046D01*
X036618Y019206D01*
X036496Y019256D01*
X036365Y019256D01*
X035205Y019256D01*
X034882Y019542D01*
X034843Y019581D01*
X034833Y019585D01*
X034825Y019592D01*
X034772Y019610D01*
X034721Y019631D01*
X034711Y019631D01*
X034701Y019635D01*
X034645Y019631D01*
X026786Y019631D01*
X026786Y019676D01*
X026988Y019676D01*
X027187Y019759D01*
X027338Y019910D01*
X027370Y019986D01*
X027406Y019899D01*
X027563Y019742D01*
X027769Y019656D01*
X027880Y019656D01*
X027880Y020476D01*
X027881Y020476D01*
X027881Y020476D01*
X028441Y020476D01*
X028880Y020476D01*
X028880Y020476D01*
X028881Y020476D01*
X028881Y019656D01*
X028992Y019656D01*
X029198Y019742D01*
X029355Y019899D01*
X029391Y019986D01*
X029423Y019910D01*
X029575Y019759D01*
X029773Y019676D01*
X029988Y019676D01*
X030187Y019759D01*
X030338Y019910D01*
X030421Y020109D01*
X030421Y020844D01*
X030347Y021021D01*
X030476Y021021D01*
X030476Y020554D01*
X030472Y020541D01*
X030476Y020489D01*
X030476Y020436D01*
X030481Y020424D01*
X030482Y020411D01*
X030506Y020363D01*
X030526Y020314D01*
X030535Y020305D01*
X030541Y020294D01*
X030581Y020259D01*
X030619Y020222D01*
X030631Y020217D01*
X030931Y019959D01*
X030969Y019922D01*
X030981Y019917D01*
X030991Y019908D01*
X031041Y019892D01*
X031090Y019871D01*
X031103Y019871D01*
X031116Y019867D01*
X031168Y019871D01*
X033460Y019871D01*
X033535Y019796D01*
X033711Y019723D01*
X033901Y019723D01*
X034076Y019796D01*
X034211Y019931D01*
X034276Y020088D01*
X034311Y020073D01*
X034501Y020073D01*
X034676Y020146D01*
X034811Y020281D01*
X034884Y020456D01*
X034884Y020646D01*
X034811Y020822D01*
X034676Y020957D01*
X034501Y021029D01*
X034394Y021029D01*
X034343Y021081D01*
X034221Y021131D01*
X034090Y021131D01*
X033699Y021131D01*
X033661Y021222D01*
X033526Y021357D01*
X033351Y021429D01*
X033161Y021429D01*
X033136Y021419D01*
X033136Y022455D01*
X033211Y022531D01*
X033284Y022706D01*
X033284Y022896D01*
X033211Y023072D01*
X033076Y023207D01*
X032901Y023279D01*
X032711Y023279D01*
X032535Y023207D01*
X032400Y023072D01*
X032328Y022896D01*
X032328Y022706D01*
X032400Y022531D01*
X032476Y022455D01*
X032476Y021220D01*
X032470Y021174D01*
X032476Y021155D01*
X032476Y021136D01*
X032494Y021093D01*
X032506Y021048D01*
X032519Y021032D01*
X032526Y021014D01*
X032559Y020981D01*
X032588Y020945D01*
X032605Y020935D01*
X032619Y020922D01*
X032662Y020904D01*
X032787Y020834D01*
X032809Y020781D01*
X031492Y020781D01*
X031386Y020888D01*
X031386Y021717D01*
X031335Y021838D01*
X031243Y021931D01*
X031121Y021981D01*
X030990Y021981D01*
X028036Y021981D01*
X028036Y022156D01*
X028041Y022175D01*
X028036Y022221D01*
X028036Y022267D01*
X028028Y022286D01*
X028025Y022306D01*
X028003Y022346D01*
X027985Y022388D01*
X027971Y022403D01*
X027961Y022420D01*
X027925Y022449D01*
X027893Y022481D01*
X027874Y022489D01*
X027441Y022829D01*
X027441Y022838D01*
X027374Y022998D01*
X027252Y023120D01*
X027092Y023186D01*
X026986Y023186D01*
X026986Y025467D01*
X026935Y025588D01*
X026843Y025681D01*
X026593Y025931D01*
X026471Y025981D01*
X026340Y025981D01*
X025740Y025981D01*
X025619Y025931D01*
X025526Y025838D01*
X025369Y025681D01*
X024052Y025681D01*
X023976Y025757D01*
X023801Y025829D01*
X023611Y025829D01*
X023435Y025757D01*
X023300Y025622D01*
X023228Y025446D01*
X023228Y025256D01*
X023300Y025081D01*
X023435Y024946D01*
X023611Y024873D01*
X023801Y024873D01*
X023976Y024946D01*
X024052Y025021D01*
X025440Y025021D01*
X025571Y025021D01*
X025693Y025072D01*
X025704Y025083D01*
X025737Y025005D01*
X025776Y024966D01*
X025776Y021276D01*
X025773Y021276D01*
X025720Y021254D01*
X025643Y021331D01*
X025134Y021840D01*
X025134Y021946D01*
X025061Y022122D01*
X024926Y022257D01*
X024751Y022329D01*
X024561Y022329D01*
X024385Y022257D01*
X024250Y022122D01*
X024178Y021946D01*
X024178Y021756D01*
X024250Y021581D01*
X024385Y021446D01*
X024561Y021373D01*
X024667Y021373D01*
X024767Y021274D01*
X024575Y021194D01*
X024423Y021042D01*
X024341Y020844D01*
X024341Y020109D01*
X024394Y019979D01*
X024235Y020138D01*
X024143Y020231D01*
X024021Y020281D01*
X021142Y020281D01*
X018952Y022472D01*
X019036Y022556D01*
X019109Y022731D01*
X019109Y022921D01*
X019036Y023097D01*
X018901Y023232D01*
X018726Y023304D01*
X018718Y023304D01*
X017357Y024665D01*
X017210Y024726D01*
X017051Y024726D01*
X008760Y024726D01*
X007388Y024748D01*
X006509Y025971D01*
X006509Y026205D01*
X006466Y026308D01*
X006387Y026387D01*
X006284Y026429D01*
X006077Y026429D01*
X005217Y028023D01*
X005195Y028078D01*
X005180Y028093D01*
X005170Y028111D01*
X005124Y028149D01*
X005082Y028190D01*
X005063Y028198D01*
X005047Y028212D01*
X004990Y028229D01*
X004935Y028251D01*
X004914Y028251D01*
X004894Y028257D01*
X004835Y028251D01*
X003748Y028251D01*
X003737Y028262D01*
X003634Y028304D01*
X003127Y028304D01*
X003024Y028262D01*
X002945Y028183D01*
X002903Y028080D01*
X002903Y027573D01*
X002945Y027470D01*
X003024Y027391D01*
X003127Y027348D01*
X003634Y027348D01*
X003737Y027391D01*
X003798Y027451D01*
X004617Y027451D01*
X005519Y025779D01*
X005542Y025725D01*
X005553Y025714D01*
X005553Y025698D01*
X005595Y025595D01*
X005674Y025516D01*
X005777Y025473D01*
X005882Y025473D01*
X006827Y024158D01*
X006838Y024130D01*
X006873Y024094D01*
X006902Y024053D01*
X006928Y024037D01*
X006934Y024031D01*
X004305Y024031D01*
X004279Y024069D01*
X004284Y024081D01*
X004284Y024271D01*
X004211Y024447D01*
X004076Y024582D01*
X003901Y024654D01*
X003711Y024654D01*
X003535Y024582D01*
X003400Y024447D01*
X003328Y024271D01*
X003328Y024081D01*
X003400Y023906D01*
X003535Y023771D01*
X003711Y023698D01*
X003733Y023698D01*
X003839Y023543D01*
X003851Y023514D01*
X003872Y023494D01*
X003850Y023472D01*
X003778Y023296D01*
X003778Y023106D01*
X003788Y023081D01*
X003684Y023081D01*
X003684Y023146D01*
X003611Y023322D01*
X003476Y023457D01*
X003301Y023529D01*
X003111Y023529D01*
X002935Y023457D01*
X002800Y023322D01*
X002728Y023146D01*
X002728Y022956D01*
X002800Y022781D01*
X002935Y022646D01*
X003111Y022573D01*
X003136Y022573D01*
X003051Y022367D01*
X003051Y021536D01*
X003139Y021323D01*
X003302Y021160D01*
X003515Y021071D01*
X003746Y021071D01*
X003959Y021160D01*
X004122Y021323D01*
X004131Y021343D01*
X004139Y021323D01*
X004302Y021160D01*
X004515Y021071D01*
X004746Y021071D01*
X004959Y021160D01*
X005122Y021323D01*
X005131Y021343D01*
X005139Y021323D01*
X005302Y021160D01*
X005515Y021071D01*
X005746Y021071D01*
X005959Y021160D01*
X006122Y021323D01*
X006131Y021343D01*
X006139Y021323D01*
X006302Y021160D01*
X006515Y021071D01*
X006746Y021071D01*
X006959Y021160D01*
X007122Y021323D01*
X007131Y021343D01*
X007139Y021323D01*
X007302Y021160D01*
X007515Y021071D01*
X007746Y021071D01*
X007959Y021160D01*
X008122Y021323D01*
X008131Y021343D01*
X008139Y021323D01*
X008302Y021160D01*
X008515Y021071D01*
X008746Y021071D01*
X008959Y021160D01*
X009122Y021323D01*
X009131Y021343D01*
X009139Y021323D01*
X009302Y021160D01*
X009515Y021071D01*
X009746Y021071D01*
X009959Y021160D01*
X010122Y021323D01*
X010131Y021343D01*
X010139Y021323D01*
X010302Y021160D01*
X010515Y021071D01*
X010746Y021071D01*
X010959Y021160D01*
X011122Y021323D01*
X011131Y021343D01*
X011139Y021323D01*
X011302Y021160D01*
X011515Y021071D01*
X011746Y021071D01*
X011959Y021160D01*
X012122Y021323D01*
X012131Y021343D01*
X012139Y021323D01*
X012302Y021160D01*
X012515Y021071D01*
X012746Y021071D01*
X012959Y021160D01*
X013122Y021323D01*
X013211Y021777D02*
X017913Y021777D01*
X017515Y022176D02*
X013211Y022176D01*
X013125Y022574D02*
X017116Y022574D01*
X018253Y023770D02*
X021926Y023770D01*
X021926Y023392D02*
X021926Y023261D01*
X021976Y023139D01*
X022069Y023047D01*
X022190Y022996D01*
X023410Y022996D01*
X023485Y022921D01*
X023661Y022848D01*
X023851Y022848D01*
X024026Y022921D01*
X024161Y023056D01*
X024234Y023231D01*
X024234Y023421D01*
X024161Y023597D01*
X024026Y023732D01*
X023851Y023804D01*
X023661Y023804D01*
X023485Y023732D01*
X023410Y023656D01*
X022586Y023656D01*
X022586Y028892D01*
X022535Y029013D01*
X022443Y029106D01*
X022318Y029231D01*
X022196Y029281D01*
X022065Y029281D01*
X021017Y029281D01*
X020961Y029338D01*
X020961Y030065D01*
X021017Y030121D01*
X022071Y030121D01*
X022193Y030172D01*
X022285Y030264D01*
X022336Y030386D01*
X022336Y030517D01*
X022336Y032230D01*
X022411Y032306D01*
X022443Y032383D01*
X022475Y032306D01*
X022551Y032230D01*
X022551Y031973D01*
X022475Y031897D01*
X022403Y031722D01*
X022403Y031531D01*
X022475Y031356D01*
X022610Y031221D01*
X022786Y031148D01*
X022976Y031148D01*
X023151Y031221D01*
X023286Y031356D01*
X023359Y031531D01*
X023359Y031722D01*
X023286Y031897D01*
X023211Y031973D01*
X023211Y032230D01*
X023286Y032306D01*
X023359Y032481D01*
X023359Y032671D01*
X023286Y032847D01*
X023151Y032982D01*
X022976Y033054D01*
X022786Y033054D01*
X022610Y032982D01*
X022475Y032847D01*
X022443Y032769D01*
X022411Y032847D01*
X022276Y032982D01*
X022101Y033054D01*
X021911Y033054D01*
X021756Y032990D01*
X021601Y033054D01*
X021411Y033054D01*
X021235Y032982D01*
X021100Y032847D01*
X021028Y032671D01*
X021028Y032481D01*
X021100Y032306D01*
X021176Y032230D01*
X021176Y031422D01*
X021100Y031347D01*
X021028Y031171D01*
X021028Y030981D01*
X021100Y030806D01*
X021125Y030781D01*
X020946Y030781D01*
X020815Y030781D01*
X020694Y030731D01*
X020351Y030388D01*
X020301Y030267D01*
X020301Y030136D01*
X020301Y029267D01*
X020301Y029136D01*
X020351Y029014D01*
X020601Y028764D01*
X020694Y028672D01*
X020815Y028621D01*
X021926Y028621D01*
X021926Y023392D01*
X021926Y023371D02*
X018651Y023371D01*
X019088Y022973D02*
X023433Y022973D01*
X024078Y022973D02*
X025776Y022973D01*
X025776Y023371D02*
X024234Y023371D01*
X023934Y023770D02*
X025776Y023770D01*
X025776Y024168D02*
X022586Y024168D01*
X022586Y023770D02*
X023577Y023770D01*
X023415Y024965D02*
X022586Y024965D01*
X022586Y024567D02*
X025776Y024567D01*
X025776Y024965D02*
X023996Y024965D01*
X023962Y025762D02*
X025450Y025762D01*
X026761Y025762D02*
X028256Y025762D01*
X028256Y025364D02*
X026986Y025364D01*
X026986Y024965D02*
X028256Y024965D01*
X028256Y024567D02*
X026986Y024567D01*
X026986Y024168D02*
X028256Y024168D01*
X028256Y023770D02*
X026986Y023770D01*
X026986Y023371D02*
X028256Y023371D01*
X028256Y022973D02*
X027385Y022973D01*
X027765Y022574D02*
X028256Y022574D01*
X028256Y022176D02*
X028041Y022176D01*
X029129Y022973D02*
X032359Y022973D01*
X032382Y022574D02*
X030131Y022574D01*
X030131Y022176D02*
X032476Y022176D01*
X032476Y021777D02*
X031361Y021777D01*
X031386Y021379D02*
X032476Y021379D01*
X032560Y020980D02*
X031386Y020980D01*
X030476Y020980D02*
X030364Y020980D01*
X030421Y020581D02*
X030476Y020581D01*
X030421Y020183D02*
X030670Y020183D01*
X030212Y019784D02*
X033563Y019784D01*
X034048Y019784D02*
X035111Y019784D01*
X035091Y020183D02*
X034713Y020183D01*
X034884Y020581D02*
X035096Y020581D01*
X035472Y020980D02*
X034620Y020980D01*
X033474Y021379D02*
X041526Y021379D01*
X041526Y021777D02*
X033136Y021777D01*
X033136Y022176D02*
X033756Y022176D01*
X033756Y022574D02*
X033229Y022574D01*
X033252Y022973D02*
X041526Y022973D01*
X041526Y023371D02*
X029125Y023371D01*
X029120Y023770D02*
X041526Y023770D01*
X041526Y024168D02*
X037496Y024168D01*
X037514Y024186D02*
X037606Y024407D01*
X037606Y024826D01*
X037006Y024826D01*
X037006Y024826D01*
X037006Y023926D01*
X037125Y023926D01*
X037346Y024018D01*
X037514Y024186D01*
X037606Y024567D02*
X041526Y024567D01*
X041526Y024965D02*
X037606Y024965D01*
X037606Y024826D02*
X037606Y025246D01*
X037514Y025466D01*
X037346Y025635D01*
X037125Y025726D01*
X037006Y025726D01*
X037006Y024827D01*
X037005Y024827D01*
X037005Y025726D01*
X036886Y025726D01*
X036666Y025635D01*
X036497Y025466D01*
X036494Y025458D01*
X036334Y025618D01*
X036121Y025706D01*
X035890Y025706D01*
X035677Y025618D01*
X035514Y025455D01*
X035426Y025242D01*
X035426Y024411D01*
X035514Y024198D01*
X035677Y024035D01*
X035890Y023946D01*
X036121Y023946D01*
X036334Y024035D01*
X036494Y024194D01*
X036497Y024186D01*
X036666Y024018D01*
X036886Y023926D01*
X037005Y023926D01*
X037005Y024826D01*
X037006Y024826D01*
X037606Y024826D01*
X037557Y025364D02*
X041526Y025364D01*
X041526Y025762D02*
X030743Y025762D01*
X030786Y025806D02*
X030651Y025671D01*
X030476Y025598D01*
X030286Y025598D01*
X030110Y025671D01*
X029975Y025806D01*
X029903Y025981D01*
X029903Y026171D01*
X029975Y026347D01*
X030072Y026444D01*
X030090Y026496D01*
X030097Y026504D01*
X030101Y026513D01*
X030140Y026552D01*
X031097Y027629D01*
X031101Y027638D01*
X031140Y027678D01*
X031178Y027720D01*
X031187Y027724D01*
X031194Y027731D01*
X031245Y027752D01*
X031296Y027777D01*
X031306Y027777D01*
X031315Y027781D01*
X031371Y027781D01*
X031427Y027785D01*
X031436Y027781D01*
X035285Y027781D01*
X035360Y027857D01*
X035536Y027929D01*
X035726Y027929D01*
X035901Y027857D01*
X036036Y027722D01*
X036109Y027546D01*
X036109Y027356D01*
X036036Y027181D01*
X035901Y027046D01*
X035726Y026973D01*
X035536Y026973D01*
X035360Y027046D01*
X035285Y027121D01*
X031529Y027121D01*
X030803Y026305D01*
X030859Y026171D01*
X030859Y025981D01*
X030786Y025806D01*
X030859Y026161D02*
X041526Y026161D01*
X041418Y026560D02*
X031029Y026560D01*
X031384Y026958D02*
X041281Y026958D01*
X041144Y027357D02*
X036109Y027357D01*
X036003Y027755D02*
X041007Y027755D01*
X040870Y028154D02*
X029072Y028154D01*
X029068Y028552D02*
X040733Y028552D01*
X040596Y028951D02*
X029063Y028951D01*
X029059Y029349D02*
X040459Y029349D01*
X040279Y029748D02*
X034249Y029748D01*
X034233Y029708D02*
X034341Y029969D01*
X034341Y030251D01*
X034233Y030512D01*
X034033Y030712D01*
X033772Y030820D01*
X033489Y030820D01*
X033228Y030712D01*
X033029Y030512D01*
X032921Y030251D01*
X032921Y029969D01*
X033029Y029708D01*
X033228Y029508D01*
X033489Y029400D01*
X033772Y029400D01*
X034033Y029508D01*
X034233Y029708D01*
X034341Y030146D02*
X034483Y030146D01*
X034485Y030141D02*
X034685Y029941D01*
X034946Y029833D01*
X035229Y029833D01*
X035490Y029941D01*
X035689Y030141D01*
X035797Y030402D01*
X035797Y030684D01*
X035689Y030945D01*
X035490Y031145D01*
X035229Y031253D01*
X034946Y031253D01*
X034685Y031145D01*
X034485Y030945D01*
X034377Y030684D01*
X034377Y030402D01*
X034485Y030141D01*
X034377Y030545D02*
X034200Y030545D01*
X034485Y030944D02*
X032798Y030944D01*
X032793Y030956D02*
X032904Y030688D01*
X032904Y030543D01*
X032174Y030543D01*
X032174Y030543D01*
X032174Y031273D01*
X032319Y031273D01*
X032587Y031162D01*
X032793Y030956D01*
X032904Y030545D02*
X033062Y030545D01*
X032904Y030543D02*
X032904Y030398D01*
X032793Y030129D01*
X032587Y029924D01*
X032319Y029813D01*
X032174Y029813D01*
X032174Y030542D01*
X032174Y030542D01*
X032174Y029813D01*
X032029Y029813D01*
X031760Y029924D01*
X031555Y030129D01*
X031444Y030398D01*
X031444Y030543D01*
X032174Y030543D01*
X032174Y030543D01*
X032174Y031273D01*
X032029Y031273D01*
X031760Y031162D01*
X031555Y030956D01*
X031444Y030688D01*
X031444Y030543D01*
X032174Y030543D01*
X032904Y030543D01*
X032921Y030146D02*
X032800Y030146D01*
X033012Y029748D02*
X029055Y029748D01*
X029050Y030146D02*
X031548Y030146D01*
X031444Y030545D02*
X029046Y030545D01*
X029041Y030944D02*
X031550Y030944D01*
X032174Y030944D02*
X032174Y030944D01*
X032174Y030545D02*
X032174Y030545D01*
X032174Y030543D02*
X032174Y030543D01*
X032174Y030146D02*
X032174Y030146D01*
X031282Y032139D02*
X035979Y032139D01*
X035715Y032538D02*
X031547Y032538D01*
X031591Y032936D02*
X035670Y032936D01*
X035806Y033335D02*
X031456Y033335D01*
X030074Y032139D02*
X029028Y032139D01*
X029033Y031741D02*
X039094Y031741D01*
X038857Y032139D02*
X037188Y032139D01*
X037452Y032538D02*
X038620Y032538D01*
X038383Y032936D02*
X037496Y032936D01*
X037361Y033335D02*
X038146Y033335D01*
X039331Y031342D02*
X029037Y031342D01*
X028256Y031342D02*
X023272Y031342D01*
X023351Y031741D02*
X028256Y031741D01*
X028256Y032139D02*
X023211Y032139D01*
X023359Y032538D02*
X028256Y032538D01*
X028256Y032936D02*
X023197Y032936D01*
X022564Y032936D02*
X022322Y032936D01*
X022336Y032139D02*
X022551Y032139D01*
X022410Y031741D02*
X022336Y031741D01*
X022336Y031342D02*
X022489Y031342D01*
X022336Y030944D02*
X028256Y030944D01*
X028256Y030545D02*
X022336Y030545D01*
X022132Y030146D02*
X028256Y030146D01*
X028256Y029748D02*
X020961Y029748D01*
X020961Y029349D02*
X028256Y029349D01*
X028256Y028951D02*
X022561Y028951D01*
X022586Y028552D02*
X028256Y028552D01*
X028256Y028154D02*
X022586Y028154D01*
X022586Y027755D02*
X028256Y027755D01*
X028256Y027357D02*
X022586Y027357D01*
X022586Y026958D02*
X028256Y026958D01*
X028256Y026560D02*
X022586Y026560D01*
X022586Y026161D02*
X028256Y026161D01*
X029094Y026161D02*
X029903Y026161D01*
X030018Y025762D02*
X029098Y025762D01*
X029103Y025364D02*
X035476Y025364D01*
X035426Y024965D02*
X029107Y024965D01*
X029112Y024567D02*
X035426Y024567D01*
X035543Y024168D02*
X029116Y024168D01*
X029090Y026560D02*
X030147Y026560D01*
X030501Y026958D02*
X029085Y026958D01*
X029081Y027357D02*
X030855Y027357D01*
X031251Y027755D02*
X029077Y027755D01*
X029024Y032538D02*
X029809Y032538D01*
X029765Y032936D02*
X029020Y032936D01*
X029015Y033335D02*
X029900Y033335D01*
X028256Y033335D02*
X012387Y033335D01*
X012390Y032936D02*
X021189Y032936D01*
X021028Y032538D02*
X015005Y032538D01*
X014912Y032576D02*
X014381Y032576D01*
X014381Y031883D01*
X014380Y031883D01*
X014380Y031882D01*
X013293Y031882D01*
X013293Y031744D01*
X013399Y031489D01*
X013594Y031294D01*
X013849Y031189D01*
X014380Y031189D01*
X014380Y031882D01*
X014381Y031882D01*
X014381Y031189D01*
X014912Y031189D01*
X015167Y031294D01*
X015362Y031489D01*
X015468Y031744D01*
X015468Y031882D01*
X014381Y031882D01*
X014381Y031883D01*
X015468Y031883D01*
X015468Y032020D01*
X015362Y032275D01*
X015167Y032471D01*
X014912Y032576D01*
X014380Y032576D02*
X014380Y031883D01*
X013293Y031883D01*
X013293Y032020D01*
X013399Y032275D01*
X013594Y032471D01*
X013849Y032576D01*
X014380Y032576D01*
X014380Y032538D02*
X014381Y032538D01*
X014380Y032139D02*
X014381Y032139D01*
X014380Y031741D02*
X014381Y031741D01*
X014380Y031342D02*
X014381Y031342D01*
X015215Y031342D02*
X018720Y031342D01*
X018735Y031357D02*
X018600Y031222D01*
X018583Y031181D01*
X016640Y031181D01*
X016519Y031131D01*
X016426Y031038D01*
X016176Y030788D01*
X016126Y030667D01*
X016126Y030536D01*
X016126Y029488D01*
X015019Y028381D01*
X013740Y028381D01*
X013619Y028331D01*
X013526Y028238D01*
X013476Y028117D01*
X013476Y027986D01*
X013476Y025829D01*
X013411Y025829D01*
X013235Y025757D01*
X013100Y025622D01*
X013028Y025446D01*
X013028Y025256D01*
X013100Y025081D01*
X013235Y024946D01*
X013411Y024873D01*
X013601Y024873D01*
X013776Y024946D01*
X013911Y025081D01*
X013984Y025256D01*
X013984Y025363D01*
X013993Y025372D01*
X014085Y025464D01*
X014136Y025586D01*
X014136Y027721D01*
X015090Y027721D01*
X015221Y027721D01*
X015343Y027772D01*
X015621Y028050D01*
X015621Y027950D01*
X015718Y027717D01*
X015896Y027539D01*
X016129Y027442D01*
X016382Y027442D01*
X016615Y027539D01*
X016793Y027717D01*
X016890Y027950D01*
X016890Y028203D01*
X016793Y028436D01*
X016615Y028614D01*
X016382Y028711D01*
X016282Y028711D01*
X016643Y029072D01*
X016735Y029164D01*
X016786Y029286D01*
X016786Y030465D01*
X016842Y030521D01*
X018794Y030521D01*
X018911Y030473D01*
X019101Y030473D01*
X019276Y030546D01*
X019411Y030681D01*
X019484Y030856D01*
X019484Y031046D01*
X019411Y031222D01*
X019276Y031357D01*
X019101Y031429D01*
X018911Y031429D01*
X018735Y031357D01*
X019291Y031342D02*
X021098Y031342D01*
X021043Y030944D02*
X019484Y030944D01*
X019274Y030545D02*
X020508Y030545D01*
X020301Y030146D02*
X016786Y030146D01*
X016786Y029748D02*
X020301Y029748D01*
X020301Y029349D02*
X016786Y029349D01*
X016522Y028951D02*
X020414Y028951D01*
X021926Y028552D02*
X016677Y028552D01*
X016890Y028154D02*
X021926Y028154D01*
X021926Y027755D02*
X016809Y027755D01*
X015702Y027755D02*
X015303Y027755D01*
X015190Y028552D02*
X012677Y028552D01*
X012615Y028614D02*
X012382Y028711D01*
X012129Y028711D01*
X011896Y028614D01*
X011718Y028436D01*
X011621Y028203D01*
X011621Y027950D01*
X011718Y027717D01*
X011896Y027539D01*
X012129Y027442D01*
X012382Y027442D01*
X012615Y027539D01*
X012793Y027717D01*
X012890Y027950D01*
X012890Y028203D01*
X012793Y028436D01*
X012615Y028614D01*
X012890Y028154D02*
X013491Y028154D01*
X013476Y027755D02*
X012809Y027755D01*
X013476Y027357D02*
X010679Y027357D01*
X010671Y026958D02*
X013476Y026958D01*
X013476Y026560D02*
X010663Y026560D01*
X010655Y026161D02*
X013476Y026161D01*
X013249Y025762D02*
X010647Y025762D01*
X010639Y025364D02*
X013028Y025364D01*
X013215Y024965D02*
X010631Y024965D01*
X009973Y026161D02*
X006509Y026161D01*
X006659Y025762D02*
X008480Y025762D01*
X008469Y025364D02*
X006945Y025364D01*
X007232Y024965D02*
X008458Y024965D01*
X006820Y024168D02*
X004284Y024168D01*
X004091Y024567D02*
X006533Y024567D01*
X006247Y024965D02*
X004581Y024965D01*
X004581Y025364D02*
X005960Y025364D01*
X005526Y025762D02*
X004581Y025762D01*
X005313Y026161D02*
X002700Y026161D01*
X002702Y026560D02*
X005098Y026560D01*
X004883Y026958D02*
X002703Y026958D01*
X002705Y027357D02*
X003106Y027357D01*
X002903Y027755D02*
X002706Y027755D01*
X002708Y028154D02*
X002933Y028154D01*
X002709Y028552D02*
X010932Y028552D01*
X010931Y028154D02*
X005119Y028154D01*
X005362Y027755D02*
X009939Y027755D01*
X009948Y027357D02*
X005577Y027357D01*
X005792Y026958D02*
X009956Y026958D01*
X009965Y026560D02*
X006007Y026560D01*
X004668Y027357D02*
X003655Y027357D01*
X002714Y028951D02*
X010934Y028951D01*
X010936Y029349D02*
X002883Y029349D01*
X003052Y029748D02*
X010938Y029748D01*
X010939Y030146D02*
X003221Y030146D01*
X003390Y030545D02*
X010941Y030545D01*
X010943Y030944D02*
X009689Y030944D01*
X009733Y031050D02*
X009640Y030826D01*
X009468Y030654D01*
X009244Y030561D01*
X009001Y030561D01*
X008777Y030654D01*
X008631Y030801D01*
X008484Y030654D01*
X008260Y030561D01*
X008017Y030561D01*
X007793Y030654D01*
X007621Y030826D01*
X007529Y031050D01*
X007529Y031293D01*
X007621Y031517D01*
X007652Y031547D01*
X007604Y031594D01*
X007509Y031826D01*
X007509Y031951D01*
X008138Y031951D01*
X008138Y031951D01*
X007509Y031951D01*
X007509Y032077D01*
X007604Y032308D01*
X007782Y032485D01*
X008013Y032581D01*
X008138Y032581D01*
X008138Y031952D01*
X008139Y031952D01*
X008139Y032581D01*
X008264Y032581D01*
X008495Y032485D01*
X008645Y032336D01*
X008777Y032468D01*
X009001Y032561D01*
X009244Y032561D01*
X009468Y032468D01*
X009640Y032297D01*
X009733Y032073D01*
X009733Y031830D01*
X009640Y031606D01*
X009595Y031561D01*
X009640Y031517D01*
X009733Y031293D01*
X009733Y031050D01*
X009712Y031342D02*
X010944Y031342D01*
X010946Y031741D02*
X009696Y031741D01*
X009705Y032139D02*
X010700Y032139D01*
X010194Y032538D02*
X009301Y032538D01*
X008945Y032538D02*
X008369Y032538D01*
X008139Y032538D02*
X008138Y032538D01*
X007908Y032538D02*
X007067Y032538D01*
X007191Y032936D02*
X010071Y032936D01*
X010124Y033335D02*
X007137Y033335D01*
X007534Y032139D02*
X006561Y032139D01*
X005960Y032139D02*
X004221Y032139D01*
X003911Y031741D02*
X007544Y031741D01*
X007549Y031342D02*
X003728Y031342D01*
X003559Y030944D02*
X007573Y030944D01*
X008138Y032139D02*
X008139Y032139D01*
X005454Y032538D02*
X004531Y032538D01*
X004841Y032936D02*
X005331Y032936D01*
X005384Y033335D02*
X005151Y033335D01*
X011556Y030146D02*
X011828Y030146D01*
X012098Y029748D02*
X011556Y029748D01*
X011556Y029349D02*
X013313Y029349D01*
X013313Y029347D02*
X013416Y029099D01*
X013605Y028910D01*
X013853Y028807D01*
X014908Y028807D01*
X015156Y028910D01*
X015345Y029099D01*
X015448Y029347D01*
X015448Y029615D01*
X015345Y029862D01*
X015156Y030052D01*
X014908Y030155D01*
X013853Y030155D01*
X013605Y030052D01*
X013416Y029862D01*
X013313Y029615D01*
X013313Y029347D01*
X013368Y029748D02*
X012884Y029748D01*
X013153Y030146D02*
X013833Y030146D01*
X013165Y030545D02*
X016126Y030545D01*
X016126Y030146D02*
X014928Y030146D01*
X015393Y029748D02*
X016126Y029748D01*
X015987Y029349D02*
X015448Y029349D01*
X015589Y028951D02*
X015197Y028951D01*
X013564Y028951D02*
X011556Y028951D01*
X011556Y028552D02*
X011835Y028552D01*
X011621Y028154D02*
X011556Y028154D01*
X011556Y027755D02*
X011702Y027755D01*
X014136Y027357D02*
X021926Y027357D01*
X021926Y026958D02*
X014136Y026958D01*
X014256Y027326D02*
X014506Y027326D01*
X014136Y026560D02*
X021926Y026560D01*
X021926Y026161D02*
X014136Y026161D01*
X014136Y025762D02*
X021926Y025762D01*
X021926Y025364D02*
X013985Y025364D01*
X013796Y024965D02*
X021926Y024965D01*
X021926Y024567D02*
X017456Y024567D01*
X017854Y024168D02*
X021926Y024168D01*
X022586Y025364D02*
X023228Y025364D01*
X023449Y025762D02*
X022586Y025762D01*
X025776Y022574D02*
X019044Y022574D01*
X019248Y022176D02*
X024304Y022176D01*
X024178Y021777D02*
X019647Y021777D01*
X020045Y021379D02*
X024548Y021379D01*
X024397Y020980D02*
X020444Y020980D01*
X020842Y020581D02*
X024341Y020581D01*
X024341Y020183D02*
X024191Y020183D01*
X022921Y018987D02*
X022584Y018987D01*
X022676Y018589D02*
X009466Y018589D01*
X009466Y018230D02*
X009466Y018980D01*
X009466Y019123D01*
X009411Y019255D01*
X009111Y019555D01*
X009010Y019656D01*
X008877Y019711D01*
X008734Y019711D01*
X008602Y019656D01*
X008506Y019560D01*
X008410Y019656D01*
X008277Y019711D01*
X008069Y019711D01*
X007947Y019721D01*
X007688Y019636D01*
X007688Y019636D01*
X007656Y019608D01*
X007527Y019661D01*
X007384Y019661D01*
X007252Y019606D01*
X007206Y019560D01*
X007160Y019606D01*
X007027Y019661D01*
X006884Y019661D01*
X006752Y019606D01*
X006650Y019505D01*
X006596Y019373D01*
X006596Y018619D01*
X006583Y018489D01*
X006693Y018213D01*
X006917Y018018D01*
X007206Y017948D01*
X007494Y018018D01*
X007719Y018213D01*
X007822Y018473D01*
X007846Y018468D01*
X007846Y018230D01*
X007900Y018097D01*
X008002Y017996D01*
X008134Y017941D01*
X008277Y017941D01*
X008356Y017974D01*
X008434Y017941D01*
X008577Y017941D01*
X008710Y017996D01*
X008806Y018092D01*
X008902Y017996D01*
X009034Y017941D01*
X009177Y017941D01*
X009310Y017996D01*
X009411Y018097D01*
X009466Y018230D01*
X009449Y018190D02*
X022676Y018190D01*
X022676Y017792D02*
X006758Y017792D01*
X006836Y017732D02*
X006836Y017732D01*
X006836Y017732D01*
X006917Y018018D02*
X006917Y018018D01*
X006718Y018190D02*
X006266Y018190D01*
X006266Y018589D02*
X006593Y018589D01*
X006583Y018489D02*
X006583Y018489D01*
X006693Y018213D02*
X006693Y018213D01*
X007206Y017948D02*
X007206Y017948D01*
X007693Y018190D02*
X007862Y018190D01*
X007719Y018213D02*
X007719Y018213D01*
X007089Y017393D02*
X022967Y017393D01*
X022443Y016995D02*
X023723Y016995D01*
X023544Y017393D02*
X023967Y017393D01*
X024289Y016995D02*
X027218Y016995D01*
X027223Y016596D02*
X024484Y016596D01*
X024544Y017393D02*
X024967Y017393D01*
X025544Y017393D02*
X025967Y017393D01*
X026544Y017393D02*
X026967Y017393D01*
X027544Y017393D02*
X027967Y017393D01*
X028544Y017393D02*
X028967Y017393D01*
X028693Y016995D02*
X035623Y016995D01*
X035419Y017393D02*
X035143Y017393D01*
X034419Y017393D02*
X034143Y017393D01*
X033419Y017393D02*
X033143Y017393D01*
X032419Y017393D02*
X032143Y017393D01*
X031419Y017393D02*
X030544Y017393D01*
X030836Y017792D02*
X031201Y017792D01*
X031201Y018190D02*
X030836Y018190D01*
X030836Y018589D02*
X031210Y018589D01*
X029967Y017393D02*
X029544Y017393D01*
X028880Y019656D02*
X028880Y020476D01*
X028441Y020476D01*
X027881Y020476D01*
X027881Y019656D01*
X027992Y019656D01*
X028198Y019742D01*
X028355Y019899D01*
X028381Y019960D01*
X028406Y019899D01*
X028563Y019742D01*
X028769Y019656D01*
X028880Y019656D01*
X028880Y019784D02*
X028881Y019784D01*
X029241Y019784D02*
X029549Y019784D01*
X028880Y020183D02*
X028881Y020183D01*
X028521Y019784D02*
X028241Y019784D01*
X027881Y019784D02*
X027880Y019784D01*
X027521Y019784D02*
X027212Y019784D01*
X027880Y020183D02*
X027881Y020183D01*
X025776Y021379D02*
X025595Y021379D01*
X025776Y021777D02*
X025197Y021777D01*
X025007Y022176D02*
X025776Y022176D01*
X020653Y018987D02*
X009466Y018987D01*
X009280Y019386D02*
X020305Y019386D01*
X019906Y019784D02*
X006266Y019784D01*
X006266Y019386D02*
X006601Y019386D01*
X006596Y018987D02*
X006266Y018987D01*
X006266Y020183D02*
X019507Y020183D01*
X019109Y020581D02*
X006135Y020581D01*
X007947Y019721D02*
X007947Y019721D01*
X007242Y016995D02*
X021568Y016995D01*
X021378Y016071D02*
X020328Y016071D01*
X020426Y015835D01*
X020426Y015701D01*
X019756Y015701D01*
X019756Y015701D01*
X020426Y015701D01*
X020426Y015568D01*
X020324Y015322D01*
X020189Y015187D01*
X020307Y015070D01*
X020322Y015031D01*
X020324Y015031D01*
X020371Y015031D01*
X020389Y015024D01*
X020407Y015022D01*
X020449Y014999D01*
X020493Y014981D01*
X020506Y014968D01*
X020522Y014959D01*
X020546Y014929D01*
X020601Y014929D01*
X020776Y014857D01*
X020911Y014722D01*
X020984Y014546D01*
X020984Y014356D01*
X020911Y014181D01*
X020776Y014046D01*
X020601Y013973D01*
X020411Y013973D01*
X020333Y014005D01*
X020406Y013831D01*
X020406Y013572D01*
X020390Y013534D01*
X021442Y012481D01*
X024360Y012481D01*
X024435Y012557D01*
X024611Y012629D01*
X024801Y012629D01*
X024976Y012557D01*
X024976Y012923D01*
X024811Y012923D01*
X024635Y012996D01*
X024500Y013131D01*
X024463Y013221D01*
X021802Y013221D01*
X021726Y013146D01*
X021551Y013073D01*
X021361Y013073D01*
X021185Y013146D01*
X021050Y013281D01*
X020978Y013456D01*
X020978Y013646D01*
X021050Y013822D01*
X021185Y013957D01*
X021361Y014029D01*
X021551Y014029D01*
X021726Y013957D01*
X021802Y013881D01*
X024590Y013881D01*
X024721Y013881D01*
X024768Y013862D01*
X024811Y013879D01*
X024880Y013879D01*
X024794Y013973D01*
X024711Y013973D01*
X024535Y014046D01*
X024400Y014181D01*
X024328Y014356D01*
X024328Y014546D01*
X024400Y014722D01*
X024535Y014857D01*
X024711Y014929D01*
X024901Y014929D01*
X024941Y014913D01*
X025035Y015007D01*
X025211Y015079D01*
X025401Y015079D01*
X025576Y015007D01*
X025681Y014902D01*
X025685Y014907D01*
X025861Y014979D01*
X025878Y014979D01*
X025878Y015146D01*
X025950Y015322D01*
X026085Y015457D01*
X026228Y015516D01*
X026228Y015546D01*
X026279Y015671D01*
X022202Y015671D01*
X022126Y015596D01*
X021951Y015523D01*
X021761Y015523D01*
X021585Y015596D01*
X021450Y015731D01*
X021378Y015906D01*
X021378Y016071D01*
X021422Y015799D02*
X020426Y015799D01*
X020356Y015400D02*
X026029Y015400D01*
X025878Y015002D02*
X025581Y015002D01*
X025030Y015002D02*
X020444Y015002D01*
X020960Y014603D02*
X024351Y014603D01*
X024390Y014205D02*
X020921Y014205D01*
X021044Y013806D02*
X020406Y013806D01*
X020516Y013408D02*
X020998Y013408D01*
X020915Y013009D02*
X024622Y013009D01*
X024565Y012611D02*
X021313Y012611D01*
X020778Y012212D02*
X020415Y012212D01*
X020380Y012611D02*
X018886Y012611D01*
X018886Y013009D02*
X019981Y013009D01*
X019174Y013408D02*
X018886Y013408D01*
X018226Y013408D02*
X010514Y013408D01*
X010468Y013806D02*
X012344Y013806D01*
X012301Y014205D02*
X010386Y014205D01*
X010386Y014603D02*
X012301Y014603D01*
X012436Y015002D02*
X010523Y015002D01*
X010921Y015400D02*
X019155Y015400D01*
X019086Y015701D02*
X019755Y015701D01*
X019755Y015701D01*
X019086Y015701D01*
X019086Y015799D02*
X019020Y015799D01*
X018876Y016588D02*
X018876Y016588D01*
X018884Y016596D02*
X007266Y016596D01*
X007252Y016197D02*
X010785Y016197D01*
X013325Y015002D02*
X013436Y015002D01*
X014325Y015002D02*
X014436Y015002D01*
X015325Y015002D02*
X015436Y015002D01*
X016325Y015002D02*
X016436Y015002D01*
X017325Y015002D02*
X017436Y015002D01*
X018325Y015002D02*
X019177Y015002D01*
X018598Y014603D02*
X018461Y014603D01*
X018461Y014205D02*
X018637Y014205D01*
X018886Y012212D02*
X019346Y012212D01*
X019301Y011813D02*
X018886Y011813D01*
X018886Y011415D02*
X019549Y011415D01*
X019301Y011016D02*
X018886Y011016D01*
X018886Y010618D02*
X019369Y010618D01*
X019353Y010219D02*
X018976Y010219D01*
X018431Y009821D02*
X011653Y009821D01*
X012047Y009422D02*
X018878Y009422D01*
X019301Y009024D02*
X012441Y009024D01*
X012834Y008625D02*
X019362Y008625D01*
X019332Y008227D02*
X013228Y008227D01*
X013622Y007828D02*
X019281Y007828D01*
X019529Y007429D02*
X019020Y007429D01*
X019034Y007206D02*
X018961Y007031D01*
X018886Y006632D02*
X019326Y006632D01*
X019254Y006234D02*
X025781Y006234D01*
X025781Y005835D02*
X019715Y005835D01*
X020175Y005437D02*
X026491Y005437D01*
X026381Y005835D02*
X026380Y005835D01*
X026004Y006632D02*
X020435Y006632D01*
X020481Y007031D02*
X025801Y007031D01*
X025914Y007429D02*
X020232Y007429D01*
X019881Y007429D02*
X019880Y007429D01*
X019880Y007031D02*
X019881Y007031D01*
X019880Y006632D02*
X019881Y006632D01*
X018706Y005835D02*
X015715Y005835D01*
X015941Y005437D02*
X019166Y005437D01*
X018948Y005311D02*
X019105Y005154D01*
X019191Y004948D01*
X019191Y004576D01*
X018631Y004576D01*
X018631Y004576D01*
X019191Y004576D01*
X019191Y004205D01*
X019139Y004081D01*
X028910Y004081D01*
X028985Y004157D01*
X029161Y004229D01*
X029351Y004229D01*
X029526Y004157D01*
X029661Y004022D01*
X029734Y003846D01*
X029734Y003656D01*
X029661Y003481D01*
X029526Y003346D01*
X029351Y003273D01*
X029161Y003273D01*
X028985Y003346D01*
X028910Y003421D01*
X018290Y003421D01*
X018169Y003472D01*
X018076Y003564D01*
X017827Y003813D01*
X017738Y003776D01*
X017523Y003776D01*
X017325Y003859D01*
X017173Y004010D01*
X017131Y004112D01*
X017088Y004010D01*
X016937Y003859D01*
X016738Y003776D01*
X016523Y003776D01*
X016325Y003859D01*
X016173Y004010D01*
X016091Y004209D01*
X016091Y004944D01*
X016173Y005142D01*
X016325Y005294D01*
X016523Y005376D01*
X016738Y005376D01*
X016937Y005294D01*
X017088Y005142D01*
X017131Y005040D01*
X017173Y005142D01*
X017325Y005294D01*
X017523Y005376D01*
X017738Y005376D01*
X017937Y005294D01*
X018088Y005142D01*
X018120Y005066D01*
X018156Y005154D01*
X018313Y005311D01*
X018519Y005396D01*
X018630Y005396D01*
X018630Y004577D01*
X018631Y004577D01*
X018631Y005396D01*
X018742Y005396D01*
X018948Y005311D01*
X019153Y005038D02*
X019627Y005038D01*
X019191Y004640D02*
X020088Y004640D01*
X019191Y004241D02*
X032860Y004241D01*
X032322Y003843D02*
X029734Y003843D01*
X029624Y003444D02*
X031784Y003444D01*
X033398Y004640D02*
X029661Y004640D01*
X029635Y004614D02*
X029635Y004614D01*
X030059Y005038D02*
X033926Y005038D01*
X034453Y005437D02*
X030458Y005437D01*
X033509Y005835D02*
X034981Y005835D01*
X035508Y006234D02*
X033877Y006234D01*
X034214Y006632D02*
X035870Y006632D01*
X036181Y007031D02*
X034236Y007031D01*
X034236Y007429D02*
X036492Y007429D01*
X036803Y007828D02*
X035549Y007828D01*
X035948Y008227D02*
X037114Y008227D01*
X037425Y008625D02*
X036346Y008625D01*
X036745Y009024D02*
X037737Y009024D01*
X038048Y009422D02*
X037143Y009422D01*
X037243Y009522D02*
X037243Y009522D01*
X037481Y009821D02*
X038359Y009821D01*
X038670Y010219D02*
X037507Y010219D01*
X036550Y011016D02*
X039287Y011016D01*
X039464Y011415D02*
X036584Y011415D01*
X036398Y011813D02*
X039641Y011813D01*
X039818Y012212D02*
X034486Y012212D01*
X034495Y011813D02*
X035813Y011813D01*
X035661Y011016D02*
X033197Y011016D01*
X032648Y010618D02*
X038981Y010618D01*
X039995Y012611D02*
X034386Y012611D01*
X034390Y013009D02*
X034839Y013009D01*
X035673Y013009D02*
X040172Y013009D01*
X040349Y013408D02*
X039268Y013408D01*
X039310Y013806D02*
X040526Y013806D01*
X040703Y014205D02*
X038077Y014205D01*
X037735Y014205D02*
X035885Y014205D01*
X035326Y014205D02*
X028518Y014205D01*
X028563Y013806D02*
X030412Y013806D01*
X030016Y013408D02*
X027516Y013408D01*
X027648Y013806D02*
X027117Y013806D01*
X026719Y014205D02*
X027693Y014205D01*
X027776Y014603D02*
X026523Y014603D01*
X026184Y013806D02*
X025886Y013806D01*
X025886Y013408D02*
X026583Y013408D01*
X026904Y013009D02*
X026074Y013009D01*
X026184Y012611D02*
X026938Y012611D01*
X027773Y012611D02*
X028078Y012611D01*
X028187Y013009D02*
X027808Y013009D01*
X026227Y011813D02*
X030876Y011813D01*
X030876Y011415D02*
X026145Y011415D01*
X025366Y011415D02*
X020212Y011415D01*
X020461Y011813D02*
X024367Y011813D01*
X025044Y011813D02*
X025133Y011813D01*
X025678Y012212D02*
X030876Y012212D01*
X030876Y012611D02*
X030173Y012611D01*
X030546Y013009D02*
X030872Y013009D01*
X030876Y011016D02*
X023475Y011016D01*
X023398Y010618D02*
X030396Y010618D01*
X030228Y010219D02*
X030214Y010219D01*
X030384Y009821D02*
X030496Y009821D01*
X030119Y009422D02*
X030969Y009422D01*
X031490Y009422D02*
X031491Y009422D01*
X032012Y009422D02*
X032026Y009422D01*
X032686Y009422D02*
X032771Y009422D01*
X032691Y009821D02*
X032686Y009821D01*
X032686Y010219D02*
X032938Y010219D01*
X033603Y010219D02*
X036179Y010219D01*
X036163Y009821D02*
X033851Y009821D01*
X033770Y009422D02*
X035810Y009422D01*
X035411Y009024D02*
X033601Y009024D01*
X029692Y009422D02*
X026371Y009422D01*
X026142Y009024D02*
X026972Y009024D01*
X026579Y008625D02*
X026354Y008625D01*
X026312Y008227D02*
X026576Y008227D01*
X026576Y007828D02*
X020481Y007828D01*
X020429Y008227D02*
X025350Y008227D01*
X025308Y008625D02*
X020400Y008625D01*
X020461Y009024D02*
X025520Y009024D01*
X025291Y009422D02*
X020205Y009422D01*
X020566Y009821D02*
X021910Y009821D01*
X021837Y010219D02*
X021026Y010219D01*
X020479Y010618D02*
X020392Y010618D01*
X020461Y011016D02*
X022536Y011016D01*
X024846Y012611D02*
X024976Y012611D01*
X020006Y016951D02*
X019631Y016951D01*
X016381Y016951D02*
X015881Y016951D01*
X012137Y022574D02*
X012125Y022574D01*
X011137Y022574D02*
X011125Y022574D01*
X010137Y022574D02*
X010125Y022574D01*
X009137Y022574D02*
X009125Y022574D01*
X008137Y022574D02*
X008125Y022574D01*
X007137Y022574D02*
X007125Y022574D01*
X006137Y022574D02*
X006125Y022574D01*
X005137Y022574D02*
X005125Y022574D01*
X003809Y023371D02*
X003562Y023371D01*
X003538Y023770D02*
X002691Y023770D01*
X002693Y024168D02*
X003328Y024168D01*
X003520Y024567D02*
X002694Y024567D01*
X002690Y023371D02*
X002849Y023371D01*
X002728Y022973D02*
X002688Y022973D01*
X002687Y022574D02*
X003108Y022574D01*
X003051Y022176D02*
X002685Y022176D01*
X002684Y021777D02*
X003051Y021777D01*
X003116Y021379D02*
X002682Y021379D01*
X013165Y030944D02*
X016331Y030944D01*
X015466Y031741D02*
X021176Y031741D01*
X021176Y032139D02*
X015419Y032139D01*
X013756Y032538D02*
X012394Y032538D01*
X012397Y032139D02*
X013342Y032139D01*
X013295Y031741D02*
X012693Y031741D01*
X013118Y031342D02*
X013546Y031342D01*
X018506Y027576D02*
X018881Y027576D01*
X035059Y019386D02*
X036926Y019386D01*
X036778Y019046D02*
X036778Y019046D01*
X037586Y019386D02*
X041526Y019386D01*
X041526Y019784D02*
X041150Y019784D01*
X041171Y020183D02*
X041526Y020183D01*
X041526Y020581D02*
X041165Y020581D01*
X041526Y020980D02*
X040790Y020980D01*
X040472Y020980D02*
X039790Y020980D01*
X039472Y020980D02*
X038790Y020980D01*
X038472Y020980D02*
X037790Y020980D01*
X037472Y020980D02*
X036790Y020980D01*
X036472Y020980D02*
X035790Y020980D01*
X037780Y018987D02*
X037781Y018987D01*
X038055Y018987D02*
X038559Y018987D01*
X039002Y018987D02*
X041526Y018987D01*
X041526Y018589D02*
X039352Y018589D01*
X039361Y018190D02*
X041526Y018190D01*
X041526Y017792D02*
X039361Y017792D01*
X039143Y017393D02*
X039823Y017393D01*
X039073Y016995D02*
X036389Y016995D01*
X036419Y017393D02*
X036143Y017393D01*
X036479Y016596D02*
X036874Y016596D01*
X037537Y016596D02*
X038878Y016596D01*
X038535Y016197D02*
X038186Y016197D01*
X038171Y017393D02*
X038419Y017393D01*
X037781Y017393D02*
X037780Y017393D01*
X037390Y017393D02*
X037143Y017393D01*
X037780Y017792D02*
X037781Y017792D01*
X037780Y018190D02*
X037781Y018190D01*
X037780Y018589D02*
X037781Y018589D01*
X040468Y016197D02*
X041526Y016197D01*
X041526Y016596D02*
X040867Y016596D01*
X040975Y016995D02*
X041526Y016995D01*
X041526Y017393D02*
X041084Y017393D01*
X041411Y015799D02*
X040070Y015799D01*
X039671Y015400D02*
X041234Y015400D01*
X041057Y015002D02*
X039273Y015002D01*
X038384Y014603D02*
X040880Y014603D01*
X037006Y024168D02*
X037005Y024168D01*
X037005Y024567D02*
X037006Y024567D01*
X037005Y024965D02*
X037006Y024965D01*
X037005Y025364D02*
X037006Y025364D01*
X036515Y024168D02*
X036468Y024168D01*
X035692Y030146D02*
X040042Y030146D01*
X039805Y030545D02*
X035797Y030545D01*
X035690Y030944D02*
X039568Y030944D01*
X019880Y007828D02*
X019881Y007828D01*
X018226Y006632D02*
X014803Y006632D01*
X015196Y006234D02*
X018268Y006234D01*
X018630Y005038D02*
X018631Y005038D01*
X018630Y004640D02*
X018631Y004640D01*
X018235Y003444D02*
X011573Y003444D01*
X010927Y003843D02*
X016363Y003843D01*
X016091Y004241D02*
X010281Y004241D01*
X009636Y004640D02*
X016091Y004640D01*
X016130Y005038D02*
X015645Y005038D01*
X015366Y005038D02*
X009048Y005038D01*
X008671Y005437D02*
X015056Y005437D01*
X014663Y005835D02*
X008293Y005835D01*
X007916Y006234D02*
X010172Y006234D01*
X010839Y006234D02*
X014269Y006234D01*
X013875Y006632D02*
X010984Y006632D01*
X008436Y007429D02*
X006783Y007429D01*
X012219Y003046D02*
X019831Y003046D01*
X017363Y003843D02*
X016898Y003843D01*
D24*
X018556Y007301D03*
X022306Y010101D03*
X023006Y010901D03*
X023506Y010451D03*
X023706Y011601D03*
X024706Y012151D03*
X025706Y012701D03*
X025756Y011701D03*
X027256Y012251D03*
X027356Y012851D03*
X028556Y012701D03*
X028106Y013951D03*
X029706Y014501D03*
X029306Y015851D03*
X030256Y015851D03*
X030906Y015901D03*
X031206Y014201D03*
X031206Y013351D03*
X031756Y013351D03*
X032306Y013351D03*
X032906Y013351D03*
X033456Y013351D03*
X034056Y013351D03*
X035256Y013251D03*
X035606Y014601D03*
X037206Y016251D03*
X037806Y015901D03*
X037906Y014651D03*
X038854Y013658D03*
X039356Y016601D03*
X040006Y016951D03*
X040606Y017301D03*
X037256Y018951D03*
X036006Y016701D03*
X033806Y020201D03*
X034406Y020551D03*
X033256Y020951D03*
X032806Y022801D03*
X033656Y023551D03*
X031756Y024576D03*
X030381Y026076D03*
X034006Y026701D03*
X035631Y027451D03*
X034881Y029076D03*
X026931Y021376D03*
X026456Y021851D03*
X024656Y021851D03*
X023756Y023326D03*
X023806Y024351D03*
X024656Y024051D03*
X023706Y025351D03*
X022881Y026326D03*
X020456Y028601D03*
X018881Y027576D03*
X019006Y030951D03*
X021506Y031076D03*
X022881Y031627D03*
X022881Y032576D03*
X023381Y032576D03*
X022006Y032576D03*
X021506Y032576D03*
X013506Y025351D03*
X015906Y021401D03*
X018631Y022826D03*
X021006Y020801D03*
X022156Y019201D03*
X022006Y016801D03*
X021856Y016001D03*
X020506Y014451D03*
X021456Y013551D03*
X024906Y013401D03*
X024806Y014451D03*
X025306Y014601D03*
X025956Y014501D03*
X026356Y015051D03*
X026706Y015451D03*
X027256Y015651D03*
X027656Y016801D03*
X028256Y016801D03*
X024756Y019201D03*
X024006Y016601D03*
X022881Y022326D03*
X015881Y016951D03*
X010056Y013551D03*
X008956Y010601D03*
X009106Y007901D03*
X010506Y006576D03*
X009506Y005701D03*
X011881Y007576D03*
X006256Y013601D03*
X005881Y015076D03*
X003756Y013951D03*
X003206Y023051D03*
X004256Y023201D03*
X003806Y024176D03*
X005631Y027826D03*
X007881Y025051D03*
X023506Y007551D03*
X029256Y003751D03*
X029956Y005951D03*
X032956Y008751D03*
X031756Y010601D03*
X032306Y010951D03*
X032806Y011301D03*
X033456Y011651D03*
X034056Y012001D03*
X036606Y010001D03*
X030706Y010251D03*
X029906Y009851D03*
D25*
X018631Y022826D02*
X017131Y024326D01*
X008756Y024326D01*
X007181Y024351D01*
X006031Y025951D01*
X005881Y025951D01*
X004856Y027851D01*
X003356Y027851D01*
X003381Y027826D01*
X033656Y023551D02*
X033706Y023601D01*
X033856Y023601D01*
X034006Y026701D02*
X034006Y026826D01*
D26*
X035631Y027451D02*
X031381Y027451D01*
X030381Y026326D01*
X030381Y026076D01*
X031756Y024951D02*
X031756Y024576D01*
X032806Y022801D02*
X032806Y021201D01*
X033256Y020951D01*
X033756Y020801D02*
X033406Y020451D01*
X031356Y020451D01*
X031056Y020751D01*
X031056Y021651D01*
X027706Y021651D01*
X027706Y022201D01*
X027006Y022751D01*
X026656Y022401D02*
X027456Y021851D01*
X027456Y021351D01*
X030806Y021351D01*
X030806Y020501D01*
X031156Y020201D01*
X033806Y020201D01*
X033756Y020801D02*
X034156Y020801D01*
X034406Y020551D01*
X034656Y019301D02*
X035081Y018926D01*
X036431Y018926D01*
X036756Y018601D01*
X036756Y018176D01*
X036781Y018151D01*
X037256Y018951D02*
X037256Y020101D01*
X037356Y020201D01*
X037631Y020201D01*
X038106Y019401D02*
X038106Y021251D01*
X038106Y019401D02*
X037806Y019101D01*
X037806Y018176D01*
X037781Y018151D01*
X039356Y016601D02*
X039406Y016601D01*
X038306Y015501D01*
X027856Y015501D01*
X027606Y015651D01*
X027256Y015651D01*
X026906Y015251D02*
X038656Y015251D01*
X040006Y016601D01*
X040006Y016951D01*
X040606Y016801D02*
X040606Y017301D01*
X040606Y016801D02*
X038856Y015051D01*
X026356Y015051D01*
X026706Y015451D02*
X026906Y015251D01*
X027656Y016001D02*
X021856Y016001D01*
X022206Y016201D02*
X022006Y016401D01*
X019156Y016401D01*
X018706Y015951D01*
X011006Y015951D01*
X010056Y015001D01*
X010056Y013551D01*
X008956Y013401D02*
X008756Y013601D01*
X006256Y013601D01*
X003756Y013951D02*
X003756Y012576D01*
X009756Y006576D01*
X010506Y006576D01*
X009506Y005826D02*
X009506Y005701D01*
X009106Y007901D02*
X009106Y008501D01*
X008556Y009051D01*
X008556Y010851D01*
X008606Y010901D01*
X008856Y010901D01*
X008956Y011001D01*
X008956Y013401D01*
X010131Y011701D02*
X010256Y011701D01*
X008956Y011001D02*
X008956Y010601D01*
X009006Y009551D02*
X011456Y009551D01*
X015506Y005451D01*
X017631Y004576D02*
X017631Y004476D01*
X018356Y003751D01*
X029256Y003751D01*
X029356Y004801D02*
X020406Y004801D01*
X018556Y006401D01*
X018556Y007301D01*
X019856Y008901D02*
X019881Y008926D01*
X019506Y009301D01*
X019006Y009751D01*
X018556Y010151D01*
X018556Y013651D01*
X019006Y014101D01*
X019006Y014451D01*
X019756Y014701D02*
X020306Y014701D01*
X020506Y014451D01*
X019756Y013701D02*
X021306Y012151D01*
X024706Y012151D01*
X025306Y012101D02*
X025756Y011701D01*
X025306Y012101D02*
X025306Y013901D01*
X024806Y014451D01*
X025306Y014601D02*
X025556Y014351D01*
X025556Y012851D01*
X025706Y012701D01*
X024906Y013401D02*
X024806Y013401D01*
X024656Y013551D01*
X021456Y013551D01*
X021406Y013551D01*
X020506Y012051D02*
X020381Y011926D01*
X020381Y011801D01*
X020381Y011926D02*
X020381Y012051D01*
X020906Y010551D02*
X020156Y009901D01*
X019806Y009901D01*
X019881Y009926D01*
X020906Y010551D02*
X022906Y010551D01*
X023006Y010651D01*
X023006Y010901D01*
X023256Y010301D02*
X023506Y010301D01*
X023506Y010451D01*
X023706Y011601D02*
X023606Y011701D01*
X022306Y010101D02*
X029656Y010101D01*
X029906Y009851D01*
X030706Y010251D02*
X031206Y010651D01*
X031206Y013351D01*
X030756Y013651D02*
X030556Y013501D01*
X029806Y012701D01*
X028556Y012701D01*
X027356Y012851D02*
X027356Y013101D01*
X025956Y014501D01*
X027656Y016001D02*
X027856Y015851D01*
X029306Y015851D01*
X029956Y016201D02*
X030006Y016151D01*
X030256Y015851D01*
X029956Y016201D02*
X022206Y016201D01*
X022406Y016401D02*
X022006Y016801D01*
X022406Y016401D02*
X023706Y016401D01*
X024006Y016601D01*
X024256Y018201D02*
X024256Y019651D01*
X023956Y019951D01*
X021006Y019951D01*
X017256Y023701D01*
X004131Y023701D01*
X003806Y024176D01*
X004506Y023451D02*
X017131Y023451D01*
X020881Y019701D01*
X023006Y019701D01*
X023256Y019451D01*
X023256Y018201D01*
X022156Y019201D02*
X020906Y019201D01*
X020756Y019351D01*
X020756Y019401D01*
X016906Y023251D01*
X005056Y023251D01*
X004556Y022751D01*
X003506Y022751D01*
X003206Y023051D01*
X004256Y023201D02*
X004506Y023451D01*
X007606Y025126D02*
X007881Y025051D01*
X005631Y027826D02*
X005256Y027826D01*
X013806Y028051D02*
X013806Y025651D01*
X013506Y025351D01*
X013806Y028051D02*
X015156Y028051D01*
X016456Y029351D01*
X016456Y030601D01*
X016706Y030851D01*
X018906Y030851D01*
X019006Y030951D01*
X020631Y030201D02*
X020881Y030451D01*
X022006Y030451D01*
X022006Y032576D01*
X021506Y032576D02*
X021506Y031076D01*
X020631Y030201D02*
X020631Y029201D01*
X020881Y028951D01*
X022131Y028951D01*
X022256Y028826D01*
X022256Y023326D01*
X023756Y023326D01*
X023806Y024351D02*
X023756Y024401D01*
X023756Y024551D01*
X023706Y025351D02*
X025506Y025351D01*
X025806Y025651D01*
X026406Y025651D01*
X026656Y025401D01*
X026656Y022401D01*
X026456Y021851D02*
X026456Y019301D01*
X034656Y019301D01*
X034256Y019051D02*
X034781Y018526D01*
X034781Y018151D01*
X034256Y019051D02*
X025956Y019051D01*
X025456Y019551D01*
X025456Y021051D01*
X024656Y021851D01*
X023006Y022076D02*
X022881Y022201D01*
X022881Y022326D01*
X021056Y021001D02*
X020556Y021151D01*
X021056Y021001D02*
X021006Y020801D01*
X024656Y024001D02*
X024606Y024101D01*
X024656Y024051D01*
X026106Y025251D02*
X026106Y021001D01*
X025881Y020476D01*
X026931Y021376D02*
X027156Y021151D01*
X029756Y021151D01*
X029881Y020976D01*
X029881Y020476D01*
X026256Y018201D02*
X025806Y018701D01*
X025306Y019201D01*
X024756Y019201D01*
X027656Y016801D02*
X027656Y016401D01*
X030606Y016401D01*
X030756Y016251D01*
X036456Y016251D01*
X036556Y016151D01*
X037106Y016151D01*
X037206Y016251D01*
X037456Y015751D02*
X037706Y015801D01*
X037806Y015901D01*
X037456Y015751D02*
X031456Y015751D01*
X031306Y015901D01*
X030906Y015901D01*
X030906Y016451D02*
X035706Y016451D01*
X035906Y016651D01*
X036006Y016701D01*
X035606Y014851D02*
X035606Y014601D01*
X035606Y014851D02*
X037256Y014851D01*
X037456Y014651D01*
X037906Y014651D01*
X038854Y013658D02*
X034362Y013658D01*
X034356Y013651D01*
X034356Y013701D01*
X034256Y013801D01*
X030906Y013801D01*
X030756Y013651D01*
X031206Y014201D02*
X031656Y014251D01*
X031756Y013351D02*
X031756Y010601D01*
X031656Y010601D01*
X031756Y010601D02*
X032006Y010601D01*
X032356Y010251D01*
X032356Y008751D01*
X032256Y008651D01*
X032206Y008701D01*
X027056Y008701D01*
X026906Y008551D01*
X026906Y005301D01*
X027381Y006076D02*
X028256Y005201D01*
X028806Y005201D01*
X029556Y005951D01*
X029956Y005951D01*
X030656Y006101D02*
X033306Y006101D01*
X033906Y006751D01*
X033906Y007851D01*
X034006Y007951D01*
X035206Y007951D01*
X037056Y009801D01*
X037056Y010001D01*
X037106Y010051D01*
X036606Y010001D02*
X036556Y009701D01*
X035256Y008401D01*
X028556Y008401D01*
X028556Y008251D01*
X027381Y007076D01*
X029356Y004801D02*
X030656Y006101D01*
X032956Y008751D02*
X033271Y009066D01*
X033271Y009731D01*
X032306Y010951D02*
X032306Y013351D01*
X032906Y013351D02*
X032906Y011401D01*
X032806Y011301D01*
X033456Y011351D02*
X033456Y011651D01*
X033456Y013351D01*
X034056Y013351D02*
X035206Y013351D01*
X035256Y013251D01*
X034056Y013351D02*
X034056Y012001D01*
X033456Y011351D02*
X036106Y011351D01*
X035606Y014851D02*
X028106Y014851D01*
X028106Y013951D01*
X027306Y012401D02*
X027356Y012351D01*
X027356Y012251D01*
X027306Y012251D01*
X027256Y012251D02*
X027256Y012351D01*
X027306Y012351D01*
X027306Y012401D01*
X029756Y014401D02*
X029856Y014501D01*
X029756Y014401D02*
X029706Y014501D01*
X030906Y016451D02*
X030756Y016601D01*
X028456Y016601D01*
X028256Y016801D01*
X023506Y007601D02*
X023256Y007601D01*
X023506Y007601D02*
X023506Y007551D01*
X011881Y007576D02*
X011756Y007576D01*
X006906Y016801D02*
X004406Y016801D01*
X005406Y018301D02*
X005906Y018301D01*
X015856Y021101D02*
X015856Y021151D01*
X015906Y021151D01*
X015906Y021101D01*
X015856Y021101D01*
X015906Y021151D02*
X015906Y021401D01*
X022881Y026326D02*
X022881Y026701D01*
X020456Y028601D02*
X020406Y028651D01*
X022881Y031627D02*
X022881Y032576D01*
X023381Y032576D02*
X023506Y032701D01*
X025756Y027326D02*
X025881Y027326D01*
X025881Y026826D01*
X034881Y029076D02*
X034881Y029326D01*
D27*
X020006Y016951D03*
X010131Y011701D03*
X006031Y025951D03*
X003381Y027826D03*
X014506Y027326D03*
X036106Y011351D03*
D28*
X037106Y010051D03*
X026906Y005301D03*
X019006Y014451D03*
X027006Y022751D03*
X026106Y025251D03*
X009006Y009551D03*
X015506Y005451D03*
D29*
X006906Y016301D02*
X004406Y016301D01*
X004406Y016801D01*
X004405Y016802D02*
X004416Y016867D01*
X004431Y016931D01*
X004449Y016994D01*
X004471Y017057D01*
X004496Y017118D01*
X004525Y017177D01*
X004557Y017235D01*
X004592Y017291D01*
X004630Y017344D01*
X004671Y017396D01*
X004715Y017445D01*
X004762Y017492D01*
X004811Y017536D01*
X004863Y017577D01*
X004916Y017615D01*
X004972Y017650D01*
X005030Y017682D01*
X005089Y017711D01*
X005150Y017736D01*
X005213Y017758D01*
X005276Y017776D01*
X005340Y017791D01*
X005405Y017802D01*
X005406Y017801D02*
X005406Y018301D01*
X005406Y020301D01*
X005906Y020301D01*
X005906Y018301D01*
X005906Y017801D01*
X005906Y017802D02*
X005971Y017791D01*
X006035Y017776D01*
X006098Y017758D01*
X006161Y017736D01*
X006222Y017711D01*
X006281Y017682D01*
X006339Y017650D01*
X006395Y017615D01*
X006448Y017577D01*
X006500Y017536D01*
X006549Y017492D01*
X006596Y017445D01*
X006640Y017396D01*
X006681Y017344D01*
X006719Y017291D01*
X006754Y017235D01*
X006786Y017177D01*
X006815Y017118D01*
X006840Y017057D01*
X006862Y016994D01*
X006880Y016931D01*
X006895Y016867D01*
X006906Y016802D01*
X006906Y016801D02*
X006906Y016301D01*
X006956Y018602D02*
X006955Y018571D01*
X006958Y018540D01*
X006964Y018510D01*
X006974Y018480D01*
X006988Y018452D01*
X007005Y018426D01*
X007025Y018403D01*
X007048Y018382D01*
X007073Y018364D01*
X007101Y018349D01*
X007130Y018338D01*
X007160Y018330D01*
X007190Y018326D01*
X007222Y018326D01*
X007252Y018330D01*
X007282Y018338D01*
X007311Y018349D01*
X007339Y018364D01*
X007364Y018382D01*
X007387Y018403D01*
X007407Y018426D01*
X007424Y018452D01*
X007438Y018480D01*
X007448Y018510D01*
X007454Y018540D01*
X007457Y018571D01*
X007456Y018602D01*
X007456Y018601D02*
X007456Y019301D01*
X006956Y019301D02*
X006956Y018601D01*
X007706Y019051D02*
X007710Y019085D01*
X007718Y019118D01*
X007730Y019150D01*
X007744Y019181D01*
X007762Y019210D01*
X007783Y019237D01*
X007806Y019262D01*
X007832Y019284D01*
X007860Y019304D01*
X007890Y019320D01*
X007922Y019333D01*
X007954Y019343D01*
X007988Y019349D01*
X008022Y019352D01*
X008056Y019351D01*
X008206Y019351D01*
X008206Y018851D01*
X008206Y018301D01*
X008506Y018301D02*
X008506Y019051D01*
X008806Y019351D01*
X009106Y019051D01*
X009106Y018301D01*
X009056Y018801D02*
X008556Y018801D01*
X008205Y018852D02*
X008175Y018836D01*
X008143Y018823D01*
X008109Y018814D01*
X008076Y018808D01*
X008041Y018805D01*
X008007Y018806D01*
X007973Y018810D01*
X007939Y018818D01*
X007906Y018829D01*
X007875Y018844D01*
X007845Y018861D01*
X007818Y018882D01*
X007792Y018905D01*
X007769Y018930D01*
X007748Y018958D01*
X007731Y018988D01*
X007717Y019019D01*
X007705Y019052D01*
M02*
