G75*
G70*
%OFA0B0*%
%FSLAX24Y24*%
%IPPOS*%
%LPD*%
%AMOC8*
5,1,8,0,0,1.08239X$1,22.5*
%
%ADD10C,0.0000*%
%ADD11R,0.0260X0.0800*%
%ADD12R,0.0591X0.0512*%
%ADD13R,0.0800X0.0260*%
%ADD14C,0.0600*%
%ADD15R,0.0600X0.0600*%
%ADD16OC8,0.0600*%
%ADD17C,0.0520*%
%ADD18R,0.0512X0.0591*%
%ADD19R,0.0551X0.1496*%
%ADD20C,0.0787*%
%ADD21R,0.0866X0.0236*%
%ADD22R,0.1181X0.0551*%
%ADD23C,0.0600*%
%ADD24R,0.2126X0.2441*%
%ADD25R,0.0394X0.0630*%
%ADD26R,0.0394X0.0709*%
%ADD27C,0.0709*%
%ADD28C,0.0520*%
%ADD29R,0.0500X0.0220*%
%ADD30R,0.0220X0.0500*%
%ADD31R,0.0157X0.0591*%
%ADD32R,0.0472X0.0472*%
%ADD33C,0.1266*%
%ADD34C,0.0860*%
%ADD35C,0.0740*%
%ADD36C,0.0660*%
%ADD37C,0.1300*%
%ADD38R,0.0394X0.0551*%
%ADD39R,0.0354X0.1024*%
%ADD40R,0.0591X0.1024*%
%ADD41R,0.1024X0.0591*%
%ADD42R,0.0320X0.0660*%
%ADD43R,0.0500X0.0260*%
%ADD44C,0.0100*%
%ADD45C,0.0400*%
%ADD46C,0.0240*%
%ADD47C,0.0396*%
%ADD48R,0.0396X0.0396*%
%ADD49C,0.0160*%
%ADD50C,0.0310*%
D10*
X002006Y001451D02*
X002131Y034076D01*
X042131Y034076D01*
X042126Y034072D02*
X042126Y001451D01*
X002006Y001451D01*
D11*
X007631Y012491D03*
X008131Y012491D03*
X008631Y012491D03*
X009131Y012491D03*
X009631Y012491D03*
X010131Y012491D03*
X010631Y012491D03*
X011131Y012491D03*
X011131Y014911D03*
X010631Y014911D03*
X010131Y014911D03*
X009631Y014911D03*
X009131Y014911D03*
X008631Y014911D03*
X008131Y014911D03*
X007631Y014911D03*
X031256Y021241D03*
X031756Y021241D03*
X032256Y021241D03*
X032756Y021241D03*
X032756Y023661D03*
X032256Y023661D03*
X031756Y023661D03*
X031256Y023661D03*
D12*
X031256Y025327D03*
X031256Y026075D03*
X032256Y026075D03*
X032256Y025327D03*
X033506Y025327D03*
X033506Y026075D03*
X035631Y028327D03*
X035631Y029075D03*
X033631Y022825D03*
X033631Y022077D03*
X034481Y009725D03*
X034481Y008977D03*
X019981Y021702D03*
X019981Y022450D03*
X015881Y022711D03*
X015881Y022042D03*
X012631Y017661D03*
X012631Y016992D03*
X011631Y016992D03*
X011631Y017661D03*
X010631Y017661D03*
X010631Y016992D03*
X009631Y016992D03*
X009631Y017661D03*
X008631Y017661D03*
X008631Y016992D03*
X007631Y016992D03*
X007631Y017661D03*
X006631Y017661D03*
X006631Y016992D03*
X005631Y016992D03*
X005631Y017661D03*
X004631Y017661D03*
X004631Y016992D03*
X003631Y016992D03*
X003631Y017661D03*
X006756Y014950D03*
X006756Y014202D03*
X012881Y013161D03*
X012881Y012492D03*
X013881Y012492D03*
X013881Y013161D03*
X014881Y013161D03*
X014881Y012492D03*
X015881Y012492D03*
X015881Y013161D03*
X016881Y013161D03*
X016881Y012492D03*
X017881Y012492D03*
X017881Y013161D03*
X009256Y026202D03*
X009256Y026950D03*
X008881Y029117D03*
X008881Y029786D03*
X008006Y029786D03*
X008006Y029117D03*
X006631Y029117D03*
X006631Y029786D03*
X004131Y029786D03*
X004131Y029117D03*
D13*
X012901Y011576D03*
X012901Y011076D03*
X012901Y010576D03*
X012901Y010076D03*
X012901Y009576D03*
X012901Y009076D03*
X012901Y008576D03*
X012901Y008076D03*
X012901Y007576D03*
X010466Y007576D03*
X010466Y008076D03*
X010466Y008576D03*
X010466Y009076D03*
X010466Y009576D03*
X010466Y010076D03*
X010466Y010576D03*
X010466Y011076D03*
X008046Y011076D03*
X008046Y010576D03*
X008046Y010076D03*
X008046Y009576D03*
X008046Y009076D03*
X008046Y008576D03*
X008046Y008076D03*
X008046Y007576D03*
X016861Y007576D03*
X016861Y008076D03*
X016861Y008576D03*
X016861Y009076D03*
X016861Y009576D03*
X016861Y010076D03*
X016861Y010576D03*
X016861Y011076D03*
X016861Y011576D03*
X022921Y022826D03*
X022921Y023326D03*
X022921Y023826D03*
X022921Y024326D03*
X022921Y024826D03*
X022921Y025326D03*
X022921Y025826D03*
X025341Y025826D03*
X025341Y025326D03*
X025341Y024826D03*
X025341Y024326D03*
X025341Y023826D03*
X025341Y023326D03*
X025341Y022826D03*
D14*
X025256Y018501D02*
X025256Y017901D01*
X026256Y017901D02*
X026256Y018501D01*
X027256Y018501D02*
X027256Y017901D01*
X028256Y017901D02*
X028256Y018501D01*
X029256Y018501D02*
X029256Y017901D01*
X030256Y017901D02*
X030256Y018501D01*
X031781Y018451D02*
X031781Y017851D01*
X032781Y017851D02*
X032781Y018451D01*
X033781Y018451D02*
X033781Y017851D01*
X034781Y017851D02*
X034781Y018451D01*
X035781Y018451D02*
X035781Y017851D01*
X036781Y017851D02*
X036781Y018451D01*
X037781Y018451D02*
X037781Y017851D01*
X038781Y017851D02*
X038781Y018451D01*
X037006Y024526D02*
X037006Y025126D01*
X036006Y025126D02*
X036006Y024526D01*
X024256Y018501D02*
X024256Y017901D01*
X023256Y017901D02*
X023256Y018501D01*
X017881Y014626D02*
X017881Y014026D01*
X016881Y014026D02*
X016881Y014626D01*
X015881Y014626D02*
X015881Y014026D01*
X014881Y014026D02*
X014881Y014626D01*
X013881Y014626D02*
X013881Y014026D01*
X012881Y014026D02*
X012881Y014626D01*
X012631Y021651D02*
X012631Y022251D01*
X011631Y022251D02*
X011631Y021651D01*
X010631Y021651D02*
X010631Y022251D01*
X009631Y022251D02*
X009631Y021651D01*
X008631Y021651D02*
X008631Y022251D01*
X007631Y022251D02*
X007631Y021651D01*
X006631Y021651D02*
X006631Y022251D01*
X005631Y022251D02*
X005631Y021651D01*
X004631Y021651D02*
X004631Y022251D01*
X003631Y022251D02*
X003631Y021651D01*
D15*
X028381Y007076D03*
D16*
X028381Y006076D03*
X027381Y006076D03*
X027381Y007076D03*
X026381Y007076D03*
X026381Y006076D03*
X019881Y006926D03*
X019881Y007926D03*
X019881Y008926D03*
X019881Y009926D03*
X019881Y010926D03*
X019881Y011926D03*
D17*
X025831Y009476D03*
X025831Y008476D03*
D18*
X025080Y007601D03*
X024332Y007601D03*
X024332Y010226D03*
X025080Y010226D03*
X025040Y011251D03*
X024371Y011251D03*
X030807Y014801D03*
X031555Y014801D03*
X023605Y020351D03*
X022857Y020351D03*
X008880Y006451D03*
X008132Y006451D03*
D19*
X011756Y024145D03*
X011756Y026507D03*
X015256Y026507D03*
X015256Y024145D03*
X018881Y024145D03*
X018881Y026507D03*
D20*
X014774Y029481D02*
X013987Y029481D01*
X012491Y030308D02*
X012491Y031095D01*
X013987Y031882D02*
X014774Y031882D01*
D21*
X031482Y029201D03*
X031482Y028701D03*
X031482Y028201D03*
X031482Y027701D03*
X033529Y027701D03*
X033529Y028201D03*
X033529Y028701D03*
X033529Y029201D03*
D22*
X037311Y027451D03*
X039201Y027451D03*
D23*
X033271Y009731D03*
X031491Y009731D03*
X031491Y007171D03*
X033271Y007171D03*
D24*
X020006Y018717D03*
X015881Y018717D03*
D25*
X016778Y021591D03*
X014983Y021591D03*
X019108Y021591D03*
X020903Y021591D03*
D26*
X020932Y023201D03*
X019829Y023201D03*
D27*
X016256Y028076D03*
X012256Y028076D03*
D28*
X024881Y020736D02*
X024881Y020216D01*
X025881Y020216D02*
X025881Y020736D01*
X026881Y020736D02*
X026881Y020216D01*
X027881Y020216D02*
X027881Y020736D01*
X028881Y020736D02*
X028881Y020216D01*
X029881Y020216D02*
X029881Y020736D01*
X035631Y020461D02*
X035631Y019941D01*
X036631Y019941D02*
X036631Y020461D01*
X037631Y020461D02*
X037631Y019941D01*
X038631Y019941D02*
X038631Y020461D01*
X039631Y020461D02*
X039631Y019941D01*
X040631Y019941D02*
X040631Y020461D01*
X018631Y004836D02*
X018631Y004316D01*
X017631Y004316D02*
X017631Y004836D01*
X016631Y004836D02*
X016631Y004316D01*
D29*
G36*
X026435Y012209D02*
X026083Y011857D01*
X025927Y012013D01*
X026279Y012365D01*
X026435Y012209D01*
G37*
G36*
X026658Y011986D02*
X026306Y011634D01*
X026150Y011790D01*
X026502Y012142D01*
X026658Y011986D01*
G37*
G36*
X026881Y011763D02*
X026529Y011411D01*
X026373Y011567D01*
X026725Y011919D01*
X026881Y011763D01*
G37*
G36*
X027103Y011541D02*
X026751Y011189D01*
X026595Y011345D01*
X026947Y011697D01*
X027103Y011541D01*
G37*
G36*
X027326Y011318D02*
X026974Y010966D01*
X026818Y011122D01*
X027170Y011474D01*
X027326Y011318D01*
G37*
G36*
X027549Y011095D02*
X027197Y010743D01*
X027041Y010899D01*
X027393Y011251D01*
X027549Y011095D01*
G37*
G36*
X027771Y010873D02*
X027419Y010521D01*
X027263Y010677D01*
X027615Y011029D01*
X027771Y010873D01*
G37*
G36*
X027994Y010650D02*
X027642Y010298D01*
X027486Y010454D01*
X027838Y010806D01*
X027994Y010650D01*
G37*
G36*
X030384Y013040D02*
X030032Y012688D01*
X029876Y012844D01*
X030228Y013196D01*
X030384Y013040D01*
G37*
G36*
X030161Y013263D02*
X029809Y012911D01*
X029653Y013067D01*
X030005Y013419D01*
X030161Y013263D01*
G37*
G36*
X029939Y013485D02*
X029587Y013133D01*
X029431Y013289D01*
X029783Y013641D01*
X029939Y013485D01*
G37*
G36*
X029716Y013708D02*
X029364Y013356D01*
X029208Y013512D01*
X029560Y013864D01*
X029716Y013708D01*
G37*
G36*
X029493Y013931D02*
X029141Y013579D01*
X028985Y013735D01*
X029337Y014087D01*
X029493Y013931D01*
G37*
G36*
X029271Y014153D02*
X028919Y013801D01*
X028763Y013957D01*
X029115Y014309D01*
X029271Y014153D01*
G37*
G36*
X029048Y014376D02*
X028696Y014024D01*
X028540Y014180D01*
X028892Y014532D01*
X029048Y014376D01*
G37*
G36*
X028825Y014599D02*
X028473Y014247D01*
X028317Y014403D01*
X028669Y014755D01*
X028825Y014599D01*
G37*
D30*
G36*
X027994Y014403D02*
X027838Y014247D01*
X027486Y014599D01*
X027642Y014755D01*
X027994Y014403D01*
G37*
G36*
X027771Y014180D02*
X027615Y014024D01*
X027263Y014376D01*
X027419Y014532D01*
X027771Y014180D01*
G37*
G36*
X027549Y013957D02*
X027393Y013801D01*
X027041Y014153D01*
X027197Y014309D01*
X027549Y013957D01*
G37*
G36*
X027326Y013735D02*
X027170Y013579D01*
X026818Y013931D01*
X026974Y014087D01*
X027326Y013735D01*
G37*
G36*
X027103Y013512D02*
X026947Y013356D01*
X026595Y013708D01*
X026751Y013864D01*
X027103Y013512D01*
G37*
G36*
X026881Y013289D02*
X026725Y013133D01*
X026373Y013485D01*
X026529Y013641D01*
X026881Y013289D01*
G37*
G36*
X026658Y013067D02*
X026502Y012911D01*
X026150Y013263D01*
X026306Y013419D01*
X026658Y013067D01*
G37*
G36*
X026435Y012844D02*
X026279Y012688D01*
X025927Y013040D01*
X026083Y013196D01*
X026435Y012844D01*
G37*
G36*
X028825Y010454D02*
X028669Y010298D01*
X028317Y010650D01*
X028473Y010806D01*
X028825Y010454D01*
G37*
G36*
X029048Y010677D02*
X028892Y010521D01*
X028540Y010873D01*
X028696Y011029D01*
X029048Y010677D01*
G37*
G36*
X029271Y010899D02*
X029115Y010743D01*
X028763Y011095D01*
X028919Y011251D01*
X029271Y010899D01*
G37*
G36*
X029493Y011122D02*
X029337Y010966D01*
X028985Y011318D01*
X029141Y011474D01*
X029493Y011122D01*
G37*
G36*
X029716Y011345D02*
X029560Y011189D01*
X029208Y011541D01*
X029364Y011697D01*
X029716Y011345D01*
G37*
G36*
X029939Y011567D02*
X029783Y011411D01*
X029431Y011763D01*
X029587Y011919D01*
X029939Y011567D01*
G37*
G36*
X030161Y011790D02*
X030005Y011634D01*
X029653Y011986D01*
X029809Y012142D01*
X030161Y011790D01*
G37*
G36*
X030384Y012013D02*
X030228Y011857D01*
X029876Y012209D01*
X030032Y012365D01*
X030384Y012013D01*
G37*
D31*
X008169Y024274D03*
X007913Y024274D03*
X007657Y024274D03*
X007401Y024274D03*
X007145Y024274D03*
X006890Y024274D03*
X006634Y024274D03*
X006378Y024274D03*
X006122Y024274D03*
X005866Y024274D03*
X005610Y024274D03*
X005354Y024274D03*
X005098Y024274D03*
X004842Y024274D03*
X004842Y027129D03*
X005098Y027129D03*
X005354Y027129D03*
X005610Y027129D03*
X005866Y027129D03*
X006122Y027129D03*
X006378Y027129D03*
X006634Y027129D03*
X006890Y027129D03*
X007145Y027129D03*
X007401Y027129D03*
X007657Y027129D03*
X007913Y027129D03*
X008169Y027129D03*
D32*
X005756Y029038D03*
X005006Y029038D03*
X005006Y029865D03*
X005756Y029865D03*
D33*
X030678Y032826D03*
X036583Y032826D03*
D34*
X035087Y030543D03*
X033631Y030110D03*
X032174Y030543D03*
D35*
X019756Y015701D03*
X019756Y014701D03*
X019756Y013701D03*
D36*
X009123Y031171D03*
X009123Y031951D03*
X008139Y031951D03*
X008139Y031171D03*
D37*
X006261Y033021D03*
X011001Y033021D03*
D38*
X011631Y020384D03*
X012005Y019518D03*
X012631Y019509D03*
X013005Y018643D03*
X012257Y018643D03*
X011005Y018643D03*
X010257Y018643D03*
X010005Y019518D03*
X010631Y019509D03*
X011257Y019518D03*
X009631Y020384D03*
X009257Y019518D03*
X008631Y019509D03*
X008005Y019518D03*
X007257Y019518D03*
X006631Y019509D03*
X006005Y019518D03*
X005257Y019518D03*
X004631Y019509D03*
X004005Y019518D03*
X003257Y019518D03*
X003631Y020384D03*
X005631Y020384D03*
X006257Y018643D03*
X007005Y018643D03*
X008257Y018643D03*
X009005Y018643D03*
X007631Y020384D03*
X005005Y018643D03*
X004257Y018643D03*
D39*
X024912Y033150D03*
D40*
X019676Y033190D03*
D41*
X021625Y028327D03*
X023593Y028327D03*
D42*
X023711Y033308D03*
X023278Y033308D03*
X022845Y033308D03*
X022412Y033308D03*
X021979Y033308D03*
X021546Y033308D03*
X021113Y033308D03*
X024144Y033308D03*
D43*
X020483Y028150D03*
D44*
X020483Y028574D01*
X020456Y028601D01*
X020006Y029326D02*
X019851Y029481D01*
X014381Y029481D01*
X013506Y025351D02*
X013506Y024576D01*
X012881Y023951D01*
X013406Y022826D02*
X012131Y022826D01*
X010131Y022826D01*
X008131Y022826D01*
X006131Y022826D01*
X004131Y022826D01*
X004131Y019576D01*
X004006Y019576D01*
X004006Y019076D01*
X005006Y019076D01*
X005006Y018643D01*
X005005Y018643D01*
X005006Y018601D01*
X005006Y018051D01*
X005106Y017951D01*
X005106Y016751D01*
X005406Y016451D01*
X005406Y014951D01*
X006156Y014201D01*
X006756Y014201D01*
X006756Y014202D01*
X006756Y014201D02*
X006756Y013601D01*
X006456Y013601D01*
X008056Y013601D01*
X008131Y013526D01*
X008131Y012491D01*
X008131Y013576D01*
X008156Y013601D01*
X008156Y013951D01*
X008206Y014001D01*
X010756Y014001D01*
X011131Y013626D01*
X011131Y012491D01*
X010631Y012491D02*
X010631Y011701D01*
X011756Y011701D01*
X012256Y012201D01*
X012256Y016576D01*
X012631Y016576D01*
X012631Y016992D01*
X012631Y017661D02*
X012257Y017661D01*
X012257Y018643D01*
X013005Y018643D02*
X013406Y018643D01*
X013406Y022826D01*
X013631Y022826D01*
X014006Y022451D01*
X014006Y021576D01*
X014756Y020826D01*
X016881Y020826D01*
X016881Y021489D01*
X016778Y021591D01*
X015906Y021401D02*
X015881Y021401D01*
X015881Y022042D01*
X015881Y022711D02*
X015881Y022760D01*
X014576Y022760D01*
X012631Y021951D02*
X012631Y019509D01*
X012131Y019519D02*
X012131Y022826D01*
X011631Y021951D02*
X011631Y020384D01*
X011631Y019518D02*
X011257Y019518D01*
X011631Y019518D02*
X011631Y017661D01*
X011631Y016992D02*
X011631Y014951D01*
X011131Y014911D01*
X010631Y014911D02*
X010631Y016992D01*
X010131Y016576D02*
X010131Y014911D01*
X009631Y014911D02*
X009631Y016326D01*
X008631Y016326D01*
X008631Y016992D01*
X008631Y017661D02*
X008257Y017661D01*
X008257Y018643D01*
X008005Y019076D02*
X009006Y019076D01*
X009006Y018643D01*
X009005Y018643D01*
X009631Y019518D02*
X009631Y017661D01*
X010257Y017661D02*
X010631Y017661D01*
X010257Y017661D02*
X010257Y018643D01*
X010005Y019076D02*
X010131Y019202D01*
X010131Y022826D01*
X010631Y021951D02*
X010631Y019509D01*
X010005Y019518D02*
X010005Y019076D01*
X011006Y019076D01*
X011006Y018643D01*
X011005Y018643D01*
X012005Y019518D02*
X012131Y019519D01*
X009631Y019518D02*
X009257Y019518D01*
X008631Y019509D02*
X008631Y021951D01*
X007631Y021951D02*
X007631Y020384D01*
X007631Y019518D02*
X007257Y019518D01*
X007631Y019518D02*
X007631Y017661D01*
X007631Y016992D02*
X007631Y016076D01*
X009131Y016076D01*
X009131Y014911D01*
X008631Y014911D02*
X008631Y015826D01*
X006631Y015826D01*
X006631Y016992D01*
X006631Y017661D02*
X006257Y017661D01*
X006257Y018643D01*
X006005Y019051D02*
X006005Y019518D01*
X006131Y019644D01*
X006131Y022826D01*
X005706Y023451D02*
X005856Y023601D01*
X005856Y024264D01*
X005866Y024274D01*
X005631Y024295D02*
X005631Y025451D01*
X006031Y025951D02*
X007145Y025941D01*
X007145Y026326D01*
X009132Y026326D01*
X009256Y026202D01*
X009256Y026950D02*
X009255Y026951D01*
X008556Y026951D01*
X008506Y026901D01*
X008506Y026551D01*
X007656Y026551D01*
X007657Y026553D01*
X007657Y027129D01*
X007656Y027130D01*
X007406Y027174D02*
X007401Y027129D01*
X007406Y027174D02*
X007406Y027801D01*
X006656Y027801D01*
X006634Y027779D01*
X006634Y027129D01*
X006631Y027126D01*
X006631Y026576D01*
X006506Y026451D01*
X005756Y026451D01*
X005610Y026597D01*
X005610Y027129D01*
X005631Y027149D01*
X005631Y027826D01*
X006006Y028201D02*
X005006Y028201D01*
X005006Y029038D01*
X004631Y029201D02*
X004631Y029490D01*
X005006Y029865D01*
X005756Y029865D02*
X006092Y029865D01*
X006131Y029826D01*
X006131Y029201D01*
X006256Y029076D01*
X006590Y029076D01*
X006631Y029117D01*
X006131Y028451D02*
X006381Y028201D01*
X006381Y027131D01*
X006378Y027129D01*
X006122Y027129D02*
X006131Y027245D01*
X006131Y028076D01*
X006006Y028201D01*
X006131Y028451D02*
X005756Y028451D01*
X005756Y029038D01*
X004631Y029201D02*
X004546Y029117D01*
X004131Y029117D01*
X006881Y027120D02*
X006881Y027076D01*
X006881Y027120D02*
X006890Y027129D01*
X007145Y027129D01*
X007145Y026326D01*
X007913Y027129D02*
X007913Y027919D01*
X008006Y028076D01*
X008006Y029117D01*
X008006Y029786D02*
X008006Y030326D01*
X008131Y030451D01*
X009256Y030451D01*
X009123Y030693D01*
X009123Y031171D01*
X009123Y031951D02*
X009756Y031951D01*
X009881Y031826D01*
X009881Y030076D01*
X009965Y029786D01*
X008881Y029786D01*
X008881Y029117D02*
X008881Y028076D01*
X008381Y028076D01*
X008169Y027780D01*
X008169Y027129D01*
X007881Y025051D02*
X006406Y025051D01*
X006406Y024271D01*
X006381Y024271D01*
X006378Y024274D01*
X005631Y024295D02*
X005610Y024274D01*
X005354Y024274D02*
X005354Y023701D01*
X005306Y023701D01*
X005306Y023751D01*
X003906Y023751D01*
X003206Y023051D01*
X004256Y023201D02*
X004506Y023451D01*
X005706Y023451D01*
X004842Y024238D02*
X004842Y024274D01*
X004744Y024176D01*
X003806Y024176D01*
X003631Y021951D02*
X003631Y020384D01*
X003631Y019518D02*
X003257Y019518D01*
X003631Y019518D02*
X003631Y017661D01*
X004257Y017661D02*
X004631Y017661D01*
X004257Y017661D02*
X004257Y018643D01*
X004006Y019076D02*
X004005Y019076D01*
X004005Y019518D01*
X004631Y019509D02*
X004631Y021951D01*
X005631Y021951D02*
X005631Y020384D01*
X005631Y019518D02*
X005257Y019518D01*
X005631Y019518D02*
X005631Y017661D01*
X005631Y016992D02*
X005631Y015576D01*
X008131Y015576D01*
X008131Y014911D01*
X007631Y014911D02*
X007631Y014950D01*
X006756Y014950D01*
X006630Y015076D01*
X005881Y015076D01*
X006256Y013601D02*
X006456Y013601D01*
X006921Y012491D02*
X006568Y012264D01*
X006568Y009264D01*
X007256Y008576D01*
X008046Y008576D01*
X008046Y008076D02*
X007256Y008076D01*
X004631Y010701D01*
X004631Y016992D01*
X004756Y016992D01*
X003756Y016742D02*
X003756Y013951D01*
X003756Y016742D02*
X003506Y016992D01*
X003631Y016992D01*
X006005Y019051D02*
X006956Y019051D01*
X006956Y018643D01*
X007005Y018643D01*
X008005Y019076D02*
X008005Y019518D01*
X008131Y019644D01*
X008131Y022826D01*
X006631Y021951D02*
X006631Y019509D01*
X009631Y020384D02*
X009631Y021951D01*
X009631Y016992D02*
X009631Y016576D01*
X010131Y016576D01*
X010056Y013551D02*
X010131Y013476D01*
X010131Y012491D01*
X009631Y012491D02*
X009631Y009326D01*
X009631Y006201D01*
X009756Y006076D01*
X009806Y006076D02*
X020931Y006076D01*
X020971Y009851D01*
X022056Y009901D01*
X022306Y010101D01*
X023006Y010901D02*
X023006Y011101D01*
X022906Y011201D01*
X022906Y013201D01*
X023406Y013701D01*
X023556Y013801D01*
X023606Y013851D01*
X026206Y013851D01*
X026627Y013430D01*
X026627Y013387D01*
X026849Y013610D02*
X026358Y014101D01*
X022656Y014101D01*
X022656Y016401D01*
X023756Y017451D01*
X023756Y018901D01*
X023605Y019052D01*
X023605Y020351D01*
X024756Y020351D01*
X024881Y020476D01*
X024756Y019201D02*
X024806Y015751D01*
X024606Y015551D01*
X024606Y014651D01*
X024806Y014451D01*
X025206Y014701D02*
X025256Y014751D01*
X025256Y018201D01*
X025306Y018251D01*
X025306Y018551D01*
X025906Y019151D01*
X025906Y019201D01*
X026506Y019801D01*
X031456Y019801D01*
X031756Y020101D01*
X031756Y021241D01*
X032256Y021241D02*
X032306Y021191D01*
X032306Y020051D01*
X031856Y019601D01*
X031856Y019551D01*
X026806Y019551D01*
X026256Y019001D01*
X026256Y018201D01*
X027256Y018201D02*
X027256Y017001D01*
X027006Y016751D01*
X025756Y016751D01*
X025706Y016701D01*
X025706Y014951D01*
X025956Y014701D01*
X025956Y014501D01*
X026356Y014549D02*
X026356Y015051D01*
X026356Y014549D02*
X027072Y013833D01*
X027295Y014055D02*
X027295Y014062D01*
X026756Y014601D01*
X026756Y015401D01*
X026706Y015451D01*
X027056Y015451D02*
X027256Y015651D01*
X027056Y015451D02*
X027056Y014751D01*
X027517Y014290D01*
X027517Y014278D01*
X027740Y014501D02*
X027456Y014785D01*
X027456Y015001D01*
X027656Y015201D01*
X027656Y016801D01*
X028256Y016801D02*
X028256Y018201D01*
X028256Y018451D01*
X028806Y019001D01*
X032306Y019001D01*
X033256Y019851D01*
X033256Y020951D01*
X032756Y021241D02*
X032756Y019951D01*
X032106Y019301D01*
X032106Y019201D01*
X032056Y019251D01*
X027856Y019251D01*
X027256Y018651D01*
X027256Y018201D01*
X029256Y018201D02*
X029306Y015851D01*
X030256Y015851D02*
X030256Y016851D01*
X032006Y016851D01*
X032106Y016751D01*
X032106Y014301D01*
X032056Y014301D01*
X031206Y013351D01*
X031756Y013351D02*
X031756Y013401D01*
X032456Y014101D01*
X032456Y016851D01*
X031781Y017526D01*
X031781Y018151D01*
X032781Y018151D02*
X032781Y013926D01*
X032306Y013351D01*
X032906Y013351D02*
X033806Y014251D01*
X033781Y014326D01*
X033781Y018151D01*
X033781Y020076D01*
X033806Y020201D01*
X034406Y020551D02*
X034406Y019551D01*
X035506Y018451D01*
X035781Y018151D01*
X035656Y018026D01*
X035656Y017301D01*
X035256Y016901D01*
X035256Y016851D01*
X034656Y016851D01*
X034456Y016601D01*
X034456Y013401D01*
X034356Y013301D01*
X034056Y013351D01*
X034406Y012901D02*
X034656Y013251D01*
X034656Y016401D01*
X034906Y016651D01*
X035456Y016651D01*
X035856Y017051D01*
X036206Y017051D01*
X036781Y017626D01*
X036781Y018151D01*
X036781Y014576D01*
X036606Y014401D01*
X036606Y010001D01*
X037106Y010051D02*
X039428Y013604D01*
X039375Y013658D01*
X038854Y013658D01*
X039428Y013604D02*
X041356Y016551D01*
X041356Y021201D01*
X035806Y021201D01*
X035656Y021051D01*
X035631Y020201D01*
X035006Y020451D02*
X035006Y019651D01*
X035306Y019401D01*
X038506Y019401D01*
X038506Y018451D01*
X038781Y018151D01*
X038806Y018026D01*
X038806Y016201D01*
X038506Y015901D01*
X037806Y015901D01*
X037256Y016301D02*
X037256Y018951D01*
X036631Y020201D02*
X036656Y020226D01*
X036656Y020951D01*
X041106Y020951D01*
X041156Y020901D01*
X041156Y016801D01*
X039056Y014751D01*
X038956Y014651D01*
X037856Y014651D01*
X037906Y014651D01*
X037856Y014651D02*
X037456Y014651D01*
X037206Y016251D02*
X037256Y016301D01*
X036006Y016701D02*
X035906Y016651D01*
X035706Y016451D01*
X035006Y016451D01*
X034856Y016301D01*
X034856Y012051D01*
X031806Y009001D01*
X030206Y009001D01*
X029705Y009502D01*
X028571Y010552D01*
X028794Y010775D02*
X029717Y009851D01*
X029906Y009851D01*
X029762Y010251D02*
X030706Y010251D01*
X029953Y010951D02*
X029462Y011443D01*
X029685Y011665D02*
X030049Y011301D01*
X032806Y011301D01*
X032506Y011551D02*
X032656Y011751D01*
X033306Y011751D01*
X033406Y011651D01*
X033456Y011651D01*
X034056Y012001D02*
X030240Y012001D01*
X030130Y012111D01*
X029907Y011888D02*
X030044Y011751D01*
X030056Y011751D01*
X030256Y011551D01*
X032506Y011551D01*
X032306Y010951D02*
X029953Y010951D01*
X029856Y010601D02*
X029239Y011218D01*
X029239Y011220D01*
X029017Y010997D02*
X029762Y010251D01*
X029856Y010601D02*
X031756Y010601D01*
X033271Y009731D02*
X034475Y009731D01*
X034481Y009725D01*
X034481Y008977D02*
X033755Y008251D01*
X028506Y008251D01*
X027856Y007601D01*
X027856Y006601D01*
X028381Y006076D01*
X028556Y005901D01*
X028556Y003451D01*
X016756Y003451D01*
X016631Y003701D01*
X016631Y004576D01*
X015381Y004576D01*
X014756Y005326D01*
X009257Y005326D01*
X008132Y006451D01*
X008132Y007490D01*
X008046Y007576D01*
X008781Y007576D01*
X009106Y007901D01*
X009381Y009076D02*
X008046Y009076D01*
X008006Y009551D02*
X008046Y009576D01*
X008006Y009551D02*
X009006Y009551D01*
X009381Y009076D02*
X009631Y009326D01*
X010466Y009076D02*
X011131Y009076D01*
X012131Y010076D01*
X012901Y010076D01*
X012901Y009576D02*
X012131Y009576D01*
X011131Y008576D01*
X010466Y008576D01*
X010466Y008076D02*
X011131Y008076D01*
X012131Y009076D01*
X012901Y009076D01*
X012901Y008576D02*
X012381Y008576D01*
X012256Y008451D01*
X012256Y008076D01*
X012901Y008076D01*
X012256Y008076D02*
X012256Y007576D01*
X012901Y007576D01*
X012256Y007576D02*
X011881Y007576D01*
X010506Y007536D02*
X010506Y006576D01*
X010506Y007536D02*
X010466Y007576D01*
X008880Y006451D02*
X009505Y005826D01*
X009506Y005701D01*
X010466Y009576D02*
X011131Y009576D01*
X012131Y010576D01*
X012901Y010576D01*
X012901Y011076D02*
X012131Y011076D01*
X011131Y010076D01*
X010466Y010076D01*
X010466Y010576D02*
X011131Y010576D01*
X012131Y011576D01*
X012901Y011576D01*
X010466Y011076D02*
X010381Y011161D01*
X010381Y011451D01*
X010131Y011701D01*
X009131Y012491D02*
X008631Y012491D01*
X008631Y011826D01*
X008381Y011451D01*
X007131Y011451D01*
X006881Y011326D01*
X006881Y010326D01*
X007131Y010076D01*
X008046Y010076D01*
X008046Y010576D02*
X008931Y010576D01*
X008956Y010601D01*
X007631Y012491D02*
X006921Y012491D01*
X015506Y005451D02*
X024406Y005451D01*
X024556Y005301D01*
X026906Y005301D01*
X026381Y007076D02*
X028056Y008751D01*
X032956Y008751D01*
X034556Y007901D02*
X035256Y008701D01*
X035256Y013251D01*
X034406Y012901D02*
X030140Y012901D01*
X030130Y012942D01*
X029869Y013165D02*
X029506Y012801D01*
X029456Y012801D01*
X029306Y012951D01*
X027352Y010997D01*
X027295Y010997D01*
X027295Y010990D01*
X026706Y010401D01*
X026556Y010401D01*
X026156Y010801D01*
X026797Y011443D01*
X026849Y011443D01*
X027072Y011268D02*
X027072Y011220D01*
X027072Y011268D02*
X027506Y011701D01*
X027506Y011751D01*
X027156Y012101D01*
X027063Y012101D01*
X026627Y011665D01*
X026670Y011665D01*
X027256Y012251D01*
X026706Y012201D02*
X026706Y012551D01*
X026906Y012751D01*
X027256Y012751D01*
X027356Y012851D01*
X026706Y012201D02*
X026404Y011900D01*
X026404Y011888D01*
X026181Y012111D02*
X025772Y011701D01*
X025756Y011701D01*
X025756Y011201D02*
X025090Y011201D01*
X025040Y011251D01*
X025040Y011817D01*
X024706Y012151D01*
X024371Y011251D02*
X024056Y011251D01*
X023706Y011601D01*
X023506Y010451D02*
X023506Y010401D01*
X023656Y010251D01*
X024332Y010251D01*
X024332Y010226D01*
X025080Y010226D02*
X025831Y010226D01*
X025831Y009476D01*
X025906Y009551D01*
X026256Y009551D01*
X027479Y010775D01*
X027517Y010775D01*
X027656Y010552D02*
X025806Y008701D01*
X025806Y008501D01*
X025831Y008476D01*
X025831Y007651D01*
X024856Y007651D01*
X024856Y007601D01*
X025080Y007601D01*
X024332Y007601D02*
X024332Y007551D01*
X023506Y007551D01*
X023031Y007076D02*
X022656Y007451D01*
X022656Y014101D01*
X021806Y013701D02*
X021806Y013351D01*
X021706Y013251D01*
X021706Y011651D01*
X020981Y010776D01*
X020971Y009851D01*
X020431Y010926D02*
X021356Y011851D01*
X021356Y013451D01*
X021456Y013551D01*
X021356Y013751D01*
X021356Y016201D01*
X022006Y016801D01*
X021606Y017301D02*
X021606Y019251D01*
X022106Y019251D01*
X022156Y019201D01*
X021606Y019251D02*
X021606Y020351D01*
X022857Y020351D01*
X022056Y021351D02*
X026931Y021376D01*
X027556Y021501D02*
X030506Y021501D01*
X030381Y021576D01*
X030381Y024701D01*
X029631Y025451D01*
X029631Y026326D01*
X029881Y026576D01*
X031881Y026576D01*
X032256Y026201D01*
X032256Y026075D01*
X032257Y026826D01*
X031381Y027701D01*
X031482Y027701D01*
X031482Y028201D02*
X033529Y028201D01*
X033529Y027701D02*
X033881Y027701D01*
X034756Y026826D01*
X037256Y026826D01*
X037256Y027396D01*
X037311Y027451D01*
X036881Y026451D02*
X036006Y025576D01*
X036006Y024826D01*
X036881Y026451D02*
X038506Y026451D01*
X039201Y027146D01*
X039201Y027451D01*
X036206Y028501D02*
X036206Y030201D01*
X035856Y030551D01*
X035096Y030551D01*
X035087Y030543D01*
X034256Y029485D02*
X033631Y030110D01*
X034256Y029485D02*
X034256Y028851D01*
X034106Y028701D01*
X033529Y028701D01*
X032756Y028701D01*
X032256Y029201D01*
X031482Y029201D01*
X032381Y029701D02*
X032381Y030336D01*
X032174Y030543D01*
X032381Y029701D02*
X032881Y029201D01*
X033529Y029201D01*
X034881Y029076D02*
X034882Y029075D01*
X035631Y029075D01*
X036206Y028501D02*
X036031Y028326D01*
X035882Y028326D01*
X035631Y028327D01*
X035631Y027451D01*
X033506Y025327D02*
X032256Y025327D01*
X032256Y023661D01*
X032756Y023661D02*
X032806Y023611D01*
X032806Y022801D01*
X033631Y022077D02*
X033506Y021951D01*
X035006Y020451D01*
X034781Y018151D02*
X034781Y017326D01*
X034256Y016801D01*
X034256Y014151D01*
X033456Y013351D01*
X031556Y014401D02*
X031555Y014801D01*
X031556Y014401D02*
X031507Y014352D01*
X031205Y014352D01*
X031206Y014201D01*
X030807Y014801D02*
X030653Y014801D01*
X029462Y013610D01*
X029106Y013254D01*
X029106Y013151D01*
X029306Y012951D01*
X028556Y012701D02*
X028556Y014040D01*
X028794Y014278D01*
X028571Y014501D02*
X028556Y014501D01*
X028106Y013951D01*
X029206Y013851D02*
X029256Y013851D01*
X029256Y013849D01*
X029256Y013851D02*
X029706Y014301D01*
X029706Y014501D01*
X029256Y013851D02*
X029239Y013835D01*
X029239Y013833D01*
X030807Y014801D02*
X030906Y014900D01*
X030906Y015901D01*
X030256Y016851D02*
X030256Y018201D01*
X027306Y020501D02*
X026881Y020476D01*
X027306Y020501D02*
X027556Y021501D01*
X026456Y021851D02*
X026456Y023401D01*
X025341Y023401D01*
X025341Y023326D01*
X025341Y023826D02*
X025316Y023851D01*
X024906Y023851D01*
X024656Y024051D01*
X024356Y023701D02*
X024206Y023901D01*
X024206Y024301D01*
X024306Y024451D01*
X024331Y026651D01*
X024881Y027326D01*
X024881Y030951D01*
X022881Y030951D01*
X022881Y031627D01*
X022381Y032076D02*
X022381Y033393D01*
X022412Y033308D01*
X021979Y033308D02*
X021979Y032728D01*
X022006Y032576D01*
X021546Y032742D02*
X021506Y032576D01*
X021546Y032742D02*
X021546Y033308D01*
X022845Y033308D02*
X022881Y033397D01*
X022881Y032576D01*
X023278Y032804D02*
X023381Y032576D01*
X023278Y032804D02*
X023278Y033308D01*
X023711Y033308D02*
X023711Y032871D01*
X024006Y032576D01*
X024006Y031576D01*
X024131Y031451D01*
X026006Y031451D01*
X027006Y030451D01*
X027006Y022751D01*
X025341Y022826D02*
X024506Y022826D01*
X024331Y022951D01*
X024356Y023701D01*
X024106Y023651D02*
X024006Y023751D01*
X022996Y023751D01*
X022921Y023826D01*
X022921Y023326D02*
X023756Y023326D01*
X024106Y023651D02*
X024106Y022601D01*
X024656Y022051D01*
X024656Y021851D01*
X022921Y022366D02*
X022881Y022326D01*
X022921Y022366D02*
X022921Y022826D01*
X021881Y021526D02*
X022056Y021351D01*
X021881Y021526D02*
X021881Y024826D01*
X020081Y027501D01*
X020006Y027526D01*
X020006Y029326D01*
X020881Y030576D02*
X020881Y027076D01*
X022381Y024826D01*
X022921Y024826D01*
X022946Y024351D02*
X023806Y024351D01*
X022946Y024351D02*
X022921Y024326D01*
X022921Y025326D02*
X023681Y025326D01*
X023706Y025351D01*
X022921Y025826D02*
X022921Y026326D01*
X022881Y026326D01*
X025256Y025911D02*
X025341Y025826D01*
X025356Y025801D01*
X026106Y025801D01*
X026106Y025251D01*
X025256Y025911D02*
X025256Y031201D01*
X023756Y031201D01*
X023756Y032076D01*
X022381Y032076D01*
X020131Y032076D01*
X020131Y031451D01*
X019631Y030951D01*
X019006Y030951D01*
X020881Y030576D02*
X021544Y031076D01*
X021506Y030913D01*
X021506Y031076D01*
X018006Y023701D02*
X018006Y017451D01*
X018506Y016951D01*
X018506Y013951D01*
X019506Y013951D01*
X019756Y013701D01*
X020506Y013151D02*
X020156Y012801D01*
X018606Y012801D01*
X018556Y012751D01*
X018556Y007301D01*
X019356Y009926D02*
X019881Y009926D01*
X019356Y009926D02*
X019356Y010251D01*
X019356Y010151D01*
X019356Y010251D02*
X019356Y011451D01*
X020456Y011451D01*
X021106Y012101D01*
X021106Y016401D01*
X022856Y018151D01*
X023256Y018201D01*
X024006Y017951D02*
X024256Y018201D01*
X024006Y017951D02*
X024006Y016601D01*
X021856Y016001D02*
X021856Y015801D01*
X021656Y015601D01*
X021656Y013851D01*
X021806Y013701D01*
X020506Y013151D02*
X020506Y014451D01*
X019006Y014451D02*
X019006Y016951D01*
X018506Y017451D01*
X018506Y020951D01*
X019006Y021451D01*
X019108Y021591D01*
X019981Y021702D02*
X021006Y020801D01*
X019981Y022450D02*
X019981Y022451D01*
X019956Y022451D01*
X021606Y017301D02*
X020856Y016551D01*
X020856Y012451D01*
X020356Y011951D01*
X019906Y011951D01*
X019881Y011926D01*
X019881Y010926D02*
X020431Y010926D01*
X023031Y007076D02*
X026381Y007076D01*
X028381Y007076D02*
X029206Y007901D01*
X034556Y007901D01*
X035606Y008451D02*
X033606Y006451D01*
X029756Y006451D01*
X029156Y005851D01*
X029156Y003801D01*
X029256Y003701D01*
X029956Y005951D02*
X033606Y005951D01*
X036106Y008451D01*
X036106Y011351D01*
X035606Y008451D02*
X035606Y014601D01*
X039356Y016601D02*
X039356Y019201D01*
X038631Y019926D01*
X038631Y020201D01*
X039606Y020026D02*
X039631Y020201D01*
X039606Y020026D02*
X039606Y017101D01*
X040006Y016951D01*
X040606Y017301D02*
X040631Y017926D01*
X040631Y020201D01*
X031756Y023661D02*
X031756Y024576D01*
X031256Y026075D02*
X031256Y026076D01*
X030381Y026076D01*
X030506Y021501D02*
X030631Y021326D01*
X031171Y021326D01*
X031256Y021241D01*
X025206Y014701D02*
X025306Y014601D01*
X025106Y013651D02*
X024906Y013401D01*
X025106Y013651D02*
X025856Y013651D01*
X026342Y013165D01*
X026404Y013165D01*
X026181Y012942D02*
X025941Y012701D01*
X025706Y012701D01*
X025756Y011201D02*
X026156Y010801D01*
X027656Y010552D02*
X027740Y010552D01*
X007145Y029731D02*
X007090Y029786D01*
X007131Y029826D01*
D45*
X011756Y026507D02*
X015256Y026507D01*
X015256Y027326D01*
X014506Y027326D01*
X016256Y028076D02*
X016881Y027451D01*
X016881Y024701D01*
X016325Y024145D01*
X015256Y024145D01*
X014576Y022760D02*
X014983Y022474D01*
X014983Y021591D01*
X014576Y022760D02*
X012881Y023951D01*
X011825Y023951D01*
X011756Y024145D01*
X012256Y028076D02*
X012256Y028576D01*
X013160Y029481D01*
X014381Y029481D01*
X016256Y028076D02*
X019631Y028076D01*
X019631Y024076D01*
X021506Y024076D01*
X021506Y021576D01*
X020918Y021576D01*
X020903Y021591D01*
X020881Y022451D02*
X019956Y022451D01*
X019006Y022451D01*
X019068Y022389D01*
X019131Y022326D01*
X019108Y022304D01*
X019108Y021591D01*
X019256Y023201D02*
X018881Y023576D01*
X018881Y023826D01*
X018756Y023701D01*
X018006Y023701D01*
X017756Y023701D01*
X016793Y022739D01*
X016793Y022451D01*
X016778Y021591D01*
X019256Y023201D02*
X019829Y023201D01*
X019881Y023201D01*
X018881Y023826D02*
X018881Y024145D01*
X020881Y023128D02*
X020881Y022451D01*
X020881Y023128D02*
X020932Y023201D01*
X018881Y026507D02*
X018881Y027576D01*
X020006Y018717D02*
X020006Y016951D01*
X015881Y016951D02*
X015881Y018717D01*
D46*
X019068Y022389D02*
X018631Y022826D01*
X008139Y031171D02*
X007339Y031171D01*
X007339Y031159D01*
X006631Y030451D01*
X006631Y029786D01*
X007090Y029786D01*
X007339Y031171D02*
X007309Y031201D01*
X004881Y031201D01*
X004131Y030451D01*
X004131Y029786D01*
X003465Y029786D01*
X003381Y029701D01*
X003381Y027826D01*
X031256Y025327D02*
X031256Y023661D01*
X031356Y022051D02*
X031256Y021951D01*
X031256Y021241D01*
X031356Y022051D02*
X033406Y022051D01*
X033506Y021951D01*
X033631Y022825D02*
X033656Y022850D01*
X033656Y023551D01*
X033506Y026075D02*
X033507Y026701D01*
X034006Y026701D01*
X033529Y027701D02*
X033529Y028201D01*
X031482Y028201D02*
X031482Y028701D01*
D47*
X030381Y026076D03*
X031756Y024576D03*
X032806Y022801D03*
X033656Y023551D03*
X033256Y020951D03*
X033806Y020201D03*
X034406Y020551D03*
X037256Y018951D03*
X036006Y016701D03*
X037206Y016251D03*
X037806Y015901D03*
X037906Y014651D03*
X038854Y013658D03*
X039356Y016601D03*
X040006Y016951D03*
X040606Y017301D03*
X035606Y014601D03*
X035256Y013251D03*
X034056Y013351D03*
X033456Y013351D03*
X032906Y013351D03*
X032306Y013351D03*
X031756Y013351D03*
X031206Y013351D03*
X031206Y014201D03*
X029706Y014501D03*
X029306Y015851D03*
X030256Y015851D03*
X030906Y015901D03*
X028256Y016801D03*
X027656Y016801D03*
X027256Y015651D03*
X026706Y015451D03*
X026356Y015051D03*
X025956Y014501D03*
X025306Y014601D03*
X024806Y014451D03*
X024906Y013401D03*
X025706Y012701D03*
X025756Y011701D03*
X024706Y012151D03*
X023706Y011601D03*
X023006Y010901D03*
X023506Y010451D03*
X022306Y010101D03*
X023506Y007551D03*
X027256Y012251D03*
X027356Y012851D03*
X028556Y012701D03*
X028106Y013951D03*
X030706Y010251D03*
X029906Y009851D03*
X031756Y010601D03*
X032306Y010951D03*
X032806Y011301D03*
X033456Y011651D03*
X034056Y012001D03*
X036606Y010001D03*
X032956Y008751D03*
X029956Y005951D03*
X029256Y003751D03*
X021456Y013551D03*
X020506Y014451D03*
X021856Y016001D03*
X022006Y016801D03*
X024006Y016601D03*
X024756Y019201D03*
X026931Y021376D03*
X026456Y021851D03*
X024656Y021851D03*
X023756Y023326D03*
X023806Y024351D03*
X024656Y024051D03*
X023706Y025351D03*
X022881Y026326D03*
X020456Y028601D03*
X018881Y027576D03*
X019006Y030951D03*
X021506Y031076D03*
X022881Y031627D03*
X022881Y032576D03*
X023381Y032576D03*
X022006Y032576D03*
X021506Y032576D03*
X013506Y025351D03*
X015906Y021401D03*
X018631Y022826D03*
X021006Y020801D03*
X022156Y019201D03*
X022881Y022326D03*
X015881Y016951D03*
X010056Y013551D03*
X008956Y010601D03*
X009106Y007901D03*
X010506Y006576D03*
X009506Y005701D03*
X011881Y007576D03*
X018556Y007301D03*
X006256Y013601D03*
X005881Y015076D03*
X003756Y013951D03*
X003206Y023051D03*
X004256Y023201D03*
X003806Y024176D03*
X005631Y027826D03*
X007881Y025051D03*
X034006Y026701D03*
X035631Y027451D03*
X034881Y029076D03*
D48*
X020006Y016951D03*
X010131Y011701D03*
X006031Y025951D03*
X003381Y027826D03*
X014506Y027326D03*
X036106Y011351D03*
D49*
X017881Y011826D02*
X017631Y011576D01*
X016861Y011576D01*
X016861Y011076D02*
X016131Y011076D01*
X016131Y011826D01*
X016881Y012326D01*
X016881Y012492D01*
X016881Y013161D02*
X016881Y014326D01*
X015881Y014326D02*
X015881Y013161D01*
X015881Y012492D02*
X015881Y012076D01*
X015631Y011826D01*
X015631Y010826D01*
X016131Y010576D01*
X016861Y010576D01*
X016861Y010076D02*
X015131Y010076D01*
X014881Y010326D01*
X014881Y012492D01*
X014881Y013161D02*
X014881Y014326D01*
X013881Y014326D02*
X013881Y013161D01*
X013881Y012492D02*
X013881Y012076D01*
X014381Y011576D01*
X014381Y009826D01*
X014631Y009576D01*
X016861Y009576D01*
X016861Y009076D02*
X014631Y009076D01*
X013881Y009826D01*
X013881Y011576D01*
X013796Y011626D01*
X012881Y012492D01*
X012881Y013161D02*
X012881Y014326D01*
X008046Y010076D02*
X008046Y009576D01*
X017881Y011826D02*
X017881Y012492D01*
X017881Y013161D02*
X017881Y014326D01*
X006131Y025951D02*
X006031Y025951D01*
X006131Y025951D02*
X005631Y025451D01*
D50*
X019006Y014451D03*
X027006Y022751D03*
X026106Y025251D03*
X037106Y010051D03*
X026906Y005301D03*
X015506Y005451D03*
X009006Y009551D03*
M02*
