%
M48
M72
T01C0.0150
T02C0.0236
T03C0.0320
T04C0.0360
T05C0.0394
T06C0.0400
T07C0.0472
T08C0.0866
T09C0.0900
%
T01
X9006Y9551
X15506Y5451
X19006Y14451
X27006Y22751
X26106Y25251
X37106Y10051
X26906Y5301
T02
X9506Y5701
X10506Y6576
X11881Y7576
X9106Y7901
X8956Y10601
X10131Y11701
X10056Y13551
X6256Y13601
X5881Y15076
X3756Y13951
X3206Y23051
X4256Y23201
X3806Y24176
X6031Y25951
X5631Y27826
X3381Y27826
X7881Y25051
X13506Y25351
X14506Y27326
X18881Y27576
X20456Y28601
X22881Y26326
X23706Y25351
X23806Y24351
X24656Y24051
X23756Y23326
X22881Y22326
X24656Y21851
X26456Y21851
X26931Y21376
X24756Y19201
X22156Y19201
X21006Y20801
X18631Y22826
X15906Y21401
X15881Y16951
X20006Y16951
X22006Y16801
X21856Y16001
X20506Y14451
X21456Y13551
X23706Y11601
X23006Y10901
X23506Y10451
X22306Y10101
X24706Y12151
X25706Y12701
X25756Y11701
X27256Y12251
X27356Y12851
X28556Y12701
X28106Y13951
X29706Y14501
X29306Y15851
X30256Y15851
X30906Y15901
X31206Y14201
X31206Y13351
X31756Y13351
X32306Y13351
X32906Y13351
X33456Y13351
X34056Y13351
X35256Y13251
X35606Y14601
X37206Y16251
X37806Y15901
X37906Y14651
X38854Y13658
X36106Y11351
X36606Y10001
X34056Y12001
X33456Y11651
X32806Y11301
X32306Y10951
X31756Y10601
X30706Y10251
X29906Y9851
X32956Y8751
X29956Y5951
X29256Y3751
X23506Y7551
X18556Y7301
X24906Y13401
X24806Y14451
X25306Y14601
X25956Y14501
X26356Y15051
X26706Y15451
X27256Y15651
X27656Y16801
X28256Y16801
X24006Y16601
X31756Y24576
X30381Y26076
X33656Y23551
X32806Y22801
X33256Y20951
X33806Y20201
X34406Y20551
X37256Y18951
X36006Y16701
X39356Y16601
X40006Y16951
X40606Y17301
X34006Y26701
X35631Y27451
X34881Y29076
X23381Y32576
X22881Y32576
X22006Y32576
X21506Y32576
X21506Y31076
X22881Y31627
X19006Y30951
T03
X24881Y20476
X25881Y20476
X26881Y20476
X27881Y20476
X28881Y20476
X29881Y20476
X35631Y20201
X36631Y20201
X37631Y20201
X38631Y20201
X39631Y20201
X40631Y20201
X25831Y9476
X25831Y8476
X18631Y4576
X17631Y4576
X16631Y4576
T04
X9123Y31171
X9123Y31951
X8139Y31951
X8139Y31171
T05
X12491Y30701
X14381Y31882
X14381Y29481
T06
X12631Y21951
X11631Y21951
X10631Y21951
X9631Y21951
X8631Y21951
X7631Y21951
X6631Y21951
X5631Y21951
X4631Y21951
X3631Y21951
X12881Y14326
X13881Y14326
X14881Y14326
X15881Y14326
X16881Y14326
X17881Y14326
X19756Y14701
X19756Y13701
X19881Y11926
X19881Y10926
X19881Y9926
X19881Y8926
X19881Y7926
X19881Y6926
X26381Y7076
X26381Y6076
X27381Y6076
X28381Y6076
X28381Y7076
X27381Y7076
X31491Y7171
X33271Y7171
X33271Y9731
X31491Y9731
X31781Y18151
X32781Y18151
X33781Y18151
X34781Y18151
X35781Y18151
X36781Y18151
X37781Y18151
X38781Y18151
X37006Y24826
X36006Y24826
X30256Y18201
X29256Y18201
X28256Y18201
X27256Y18201
X26256Y18201
X25256Y18201
X24256Y18201
X23256Y18201
X19756Y15701
T07
X16256Y28076
X12256Y28076
X32174Y30543
X33631Y30110
X35087Y30543
T08
X36583Y32826
X30678Y32826
T09
X11001Y33021
X6261Y33021
M30
