G75*
G70*
%OFA0B0*%
%FSLAX24Y24*%
%IPPOS*%
%LPD*%
%AMOC8*
5,1,8,0,0,1.08239X$1,22.5*
%
%ADD10C,0.0680*%
%ADD11R,0.0680X0.0680*%
%ADD12OC8,0.0680*%
%ADD13C,0.0600*%
%ADD14C,0.0867*%
%ADD15C,0.0680*%
%ADD16C,0.0789*%
%ADD17C,0.0600*%
%ADD18C,0.1346*%
%ADD19C,0.0940*%
%ADD20C,0.0820*%
%ADD21C,0.0740*%
%ADD22C,0.1380*%
%ADD23C,0.0476*%
%ADD24R,0.0476X0.0476*%
%ADD25C,0.0390*%
D10*
X012881Y014026D02*
X012881Y014626D01*
X013881Y014626D02*
X013881Y014026D01*
X014881Y014026D02*
X014881Y014626D01*
X015881Y014626D02*
X015881Y014026D01*
X016881Y014026D02*
X016881Y014626D01*
X017881Y014626D02*
X017881Y014026D01*
X023256Y017901D02*
X023256Y018501D01*
X024256Y018501D02*
X024256Y017901D01*
X025256Y017901D02*
X025256Y018501D01*
X026256Y018501D02*
X026256Y017901D01*
X027256Y017901D02*
X027256Y018501D01*
X028256Y018501D02*
X028256Y017901D01*
X029256Y017901D02*
X029256Y018501D01*
X030256Y018501D02*
X030256Y017901D01*
X031781Y017851D02*
X031781Y018451D01*
X032781Y018451D02*
X032781Y017851D01*
X033781Y017851D02*
X033781Y018451D01*
X034781Y018451D02*
X034781Y017851D01*
X035781Y017851D02*
X035781Y018451D01*
X036781Y018451D02*
X036781Y017851D01*
X037781Y017851D02*
X037781Y018451D01*
X038781Y018451D02*
X038781Y017851D01*
X037006Y024526D02*
X037006Y025126D01*
X036006Y025126D02*
X036006Y024526D01*
X012631Y022251D02*
X012631Y021651D01*
X011631Y021651D02*
X011631Y022251D01*
X010631Y022251D02*
X010631Y021651D01*
X009631Y021651D02*
X009631Y022251D01*
X008631Y022251D02*
X008631Y021651D01*
X007631Y021651D02*
X007631Y022251D01*
X006631Y022251D02*
X006631Y021651D01*
X005631Y021651D02*
X005631Y022251D01*
X004631Y022251D02*
X004631Y021651D01*
X003631Y021651D02*
X003631Y022251D01*
D11*
X028381Y007076D03*
D12*
X028381Y006076D03*
X027381Y006076D03*
X027381Y007076D03*
X026381Y007076D03*
X026381Y006076D03*
X019881Y006926D03*
X019881Y007926D03*
X019881Y008926D03*
X019881Y009926D03*
X019881Y010926D03*
X019881Y011926D03*
D13*
X025831Y009476D03*
X025831Y008476D03*
D14*
X014774Y029481D02*
X013987Y029481D01*
X012491Y030308D02*
X012491Y031095D01*
X013987Y031882D02*
X014774Y031882D01*
D15*
X031491Y009731D03*
X033271Y009731D03*
X033271Y007171D03*
X031491Y007171D03*
D16*
X016256Y028076D03*
X012256Y028076D03*
D17*
X024881Y020736D02*
X024881Y020216D01*
X025881Y020216D02*
X025881Y020736D01*
X026881Y020736D02*
X026881Y020216D01*
X027881Y020216D02*
X027881Y020736D01*
X028881Y020736D02*
X028881Y020216D01*
X029881Y020216D02*
X029881Y020736D01*
X035631Y020461D02*
X035631Y019941D01*
X036631Y019941D02*
X036631Y020461D01*
X037631Y020461D02*
X037631Y019941D01*
X038631Y019941D02*
X038631Y020461D01*
X039631Y020461D02*
X039631Y019941D01*
X040631Y019941D02*
X040631Y020461D01*
X018631Y004836D02*
X018631Y004316D01*
X017631Y004316D02*
X017631Y004836D01*
X016631Y004836D02*
X016631Y004316D01*
D18*
X030678Y032826D03*
X036583Y032826D03*
D19*
X035087Y030543D03*
X033631Y030110D03*
X032174Y030543D03*
D20*
X019756Y015701D03*
X019756Y014701D03*
X019756Y013701D03*
D21*
X009123Y031171D03*
X009123Y031951D03*
X008139Y031951D03*
X008139Y031171D03*
D22*
X006261Y033021D03*
X011001Y033021D03*
D23*
X009506Y005701D03*
X010506Y006576D03*
X011881Y007576D03*
X009106Y007901D03*
X008956Y010601D03*
X010056Y013551D03*
X006256Y013601D03*
X005881Y015076D03*
X003756Y013951D03*
X003206Y023051D03*
X004256Y023201D03*
X003806Y024176D03*
X005631Y027826D03*
X007881Y025051D03*
X013506Y025351D03*
X015906Y021401D03*
X018631Y022826D03*
X021006Y020801D03*
X022156Y019201D03*
X022006Y016801D03*
X021856Y016001D03*
X020506Y014451D03*
X021456Y013551D03*
X023706Y011601D03*
X023006Y010901D03*
X023506Y010451D03*
X022306Y010101D03*
X024706Y012151D03*
X025706Y012701D03*
X025756Y011701D03*
X027256Y012251D03*
X027356Y012851D03*
X028556Y012701D03*
X028106Y013951D03*
X029706Y014501D03*
X029306Y015851D03*
X030256Y015851D03*
X030906Y015901D03*
X031206Y014201D03*
X031206Y013351D03*
X031756Y013351D03*
X032306Y013351D03*
X032906Y013351D03*
X033456Y013351D03*
X034056Y013351D03*
X035256Y013251D03*
X035606Y014601D03*
X037206Y016251D03*
X037806Y015901D03*
X037906Y014651D03*
X038854Y013658D03*
X039356Y016601D03*
X040006Y016951D03*
X040606Y017301D03*
X037256Y018951D03*
X036006Y016701D03*
X033806Y020201D03*
X034406Y020551D03*
X033256Y020951D03*
X032806Y022801D03*
X033656Y023551D03*
X031756Y024576D03*
X030381Y026076D03*
X034006Y026701D03*
X035631Y027451D03*
X034881Y029076D03*
X026931Y021376D03*
X026456Y021851D03*
X024656Y021851D03*
X023756Y023326D03*
X023806Y024351D03*
X024656Y024051D03*
X023706Y025351D03*
X022881Y026326D03*
X020456Y028601D03*
X018881Y027576D03*
X019006Y030951D03*
X021506Y031076D03*
X022881Y031627D03*
X022881Y032576D03*
X023381Y032576D03*
X022006Y032576D03*
X021506Y032576D03*
X022881Y022326D03*
X024756Y019201D03*
X024006Y016601D03*
X024806Y014451D03*
X025306Y014601D03*
X025956Y014501D03*
X026356Y015051D03*
X026706Y015451D03*
X027256Y015651D03*
X027656Y016801D03*
X028256Y016801D03*
X024906Y013401D03*
X029906Y009851D03*
X030706Y010251D03*
X031756Y010601D03*
X032306Y010951D03*
X032806Y011301D03*
X033456Y011651D03*
X034056Y012001D03*
X036606Y010001D03*
X032956Y008751D03*
X029956Y005951D03*
X029256Y003751D03*
X023506Y007551D03*
X018556Y007301D03*
X015881Y016951D03*
D24*
X020006Y016951D03*
X010131Y011701D03*
X006031Y025951D03*
X003381Y027826D03*
X014506Y027326D03*
X036106Y011351D03*
D25*
X037106Y010051D03*
X026906Y005301D03*
X019006Y014451D03*
X027006Y022751D03*
X026106Y025251D03*
X009006Y009551D03*
X015506Y005451D03*
M02*
